<?xml version="1.0" encoding="UTF-8" standalone="no"?>
<!-- Generator: Adobe Illustrator 27.6.1, SVG Export Plug-In . SVG Version: 6.00 Build 0)  -->

<svg
   version="1.1"
   id="Layer_1"
   x="0px"
   y="0px"
   viewBox="0 0 778.70887 206.67399"
   xml:space="preserve"
   sodipodi:docname="uc-ospo-network-logo.svg"
   inkscape:version="1.3 (0e150ed6c4, 2023-07-21)"
   width="778.70886"
   height="206.674"
   xmlns:inkscape="http://www.inkscape.org/namespaces/inkscape"
   xmlns:sodipodi="http://sodipodi.sourceforge.net/DTD/sodipodi-0.dtd"
   xmlns="http://www.w3.org/2000/svg"
   xmlns:svg="http://www.w3.org/2000/svg"><defs
   id="defs115" /><sodipodi:namedview
   id="namedview115"
   pagecolor="#ffffff"
   bordercolor="#000000"
   borderopacity="0.25"
   inkscape:showpageshadow="2"
   inkscape:pageopacity="0.0"
   inkscape:pagecheckerboard="0"
   inkscape:deskcolor="#d1d1d1"
   inkscape:zoom="2.9515281"
   inkscape:cx="176.34933"
   inkscape:cy="70.133163"
   inkscape:window-width="1920"
   inkscape:window-height="1200"
   inkscape:window-x="0"
   inkscape:window-y="0"
   inkscape:window-maximized="0"
   inkscape:current-layer="Layer_1" />&#10;<style
   type="text/css"
   id="style1">&#10;	.st0{fill:#F7945E;}&#10;	.st1{fill:#619BD3;}&#10;	.st2{fill:#F15C45;}&#10;	.st3{fill:#FFCA26;}&#10;	.st4{fill:#214475;}&#10;	.st5{enable-background:new    ;}&#10;	.st6{fill:#224475;}&#10;</style>&#10;<g
   id="g2"
   transform="matrix(0.53319058,0,0,0.53319058,0.5433701,-86.507077)"><path
     class="st0"
     d="m 21.31326,277.95739 c -15.9240414,8.60199 -32.186892,40.24302 -11.7077467,61.30567 20.4791457,21.06266 65.7478447,25.41071 88.3727837,14.04177 25.693043,-12.89358 46.925103,-68.47714 47.169793,-88.95629 0.2447,-20.47914 0.95996,-39.60305 9.14786,-40.18656 8.18789,-0.5835 22.85081,2.48461 32.80804,-8.05613 9.95723,-10.54074 5.19507,-34.48327 -14.79468,-47.7533 -17.78749,-11.82068 -37.85254,-5.72212 -38.62427,37.45726 -0.50821,28.3847 -8.31965,50.91552 -20.83678,68.47714 -12.51712,17.56162 -26.57771,15.81111 -37.099624,14.04177 C 65.207899,286.59703 39.458385,268.15074 21.31326,277.95739 Z"
     id="path1-6"
     style="fill:#00a291;fill-opacity:1;stroke-width:1.88227" /><path
     class="st1"
     d="m 119.94444,296.53543 c 6.8703,-19.61329 20.72384,-40.09244 46.47335,-43.61229 25.74951,-3.51986 48.43092,-6.98324 73.61575,0.62115 25.16601,7.60439 47.30156,25.42952 46.13455,63.47029 -1.16701,38.04077 -26.44596,95.50661 -83.08359,95.41249 -42.27588,-0.0753 -74.12397,-29.81522 -81.14485,-59.08459 -7.02088,-29.26937 -6.09857,-45.0993 -1.99521,-56.80705 z"
     id="path2-7"
     style="fill:#1295d8;fill-opacity:1;stroke-width:1.88227" /><path
     class="st2"
     d="m 117.5916,387.84457 c 5.28919,18.82274 29.26936,13.45826 37.45726,-14.62527 8.18789,-28.10236 -2.91753,-38.04077 11.12424,-49.74852 14.04177,-11.70775 27.50002,-3.51985 41.56061,-25.74951 14.04177,-22.24849 11.70775,-59.12224 -14.62527,-61.45626 -26.33301,-2.33402 -34.53973,1.75051 -37.45726,5.85387 -2.91752,4.10336 -7.51027,18.42747 -10.48426,35.83851 -2.974,17.41103 -7.66086,50.20025 -11.76422,60.13866 -4.10336,9.95724 -21.08147,31.01989 -15.8111,49.74852 z"
     id="path3-5"
     style="fill:#ed8715;fill-opacity:1;stroke-width:1.88227" /><path
     class="st3"
     d="m 115.4458,254.50425 c -9.54313,21.2697 -29.777578,27.0671 -43.800522,20.76148 -14.022945,-6.30562 -16.319319,-28.10235 -8.09378,-49.91791 9.524308,-25.27895 30.229327,-29.25055 44.252272,-22.96375 14.02294,6.30562 17.18516,30.85048 7.64203,52.12018 z"
     id="path4-3"
     style="fill:#ffcf00;fill-opacity:1;stroke-width:1.88227" /></g><g
   id="g119"
   transform="translate(-23.726858,-27.306001)"><g
     id="g40"
     style="fill:#ffffff">&#10;		<g
   class="st5"
   id="g39"
   style="fill:#ffffff">&#10;			<path
   class="st6"
   d="m 212.81,97.88 c -1.41,0 -2.64,-0.34 -3.69,-1.03 -1.05,-0.69 -1.86,-1.61 -2.43,-2.78 -0.57,-1.17 -0.86,-2.46 -0.86,-3.87 V 79.92 h 2.62 V 90.2 c 0,0.92 0.17,1.77 0.51,2.54 0.34,0.77 0.84,1.38 1.49,1.84 0.65,0.46 1.44,0.69 2.36,0.69 0.95,0 1.75,-0.23 2.39,-0.69 0.65,-0.46 1.14,-1.07 1.47,-1.84 0.33,-0.77 0.5,-1.61 0.5,-2.54 V 79.92 h 2.62 V 90.2 c 0,1.07 -0.16,2.06 -0.49,2.99 -0.33,0.93 -0.8,1.75 -1.41,2.45 -0.61,0.71 -1.35,1.26 -2.21,1.65 -0.85,0.4 -1.81,0.59 -2.87,0.59 z"
   id="path9"
   style="fill:#ffffff" />&#10;			<path
   class="st6"
   d="M 222.82,97.56 V 79.92 h 2.83 l 8.1,12.9 v -12.9 h 2.62 v 17.64 h -2.84 l -8.1,-12.9 v 12.9 z"
   id="path10"
   style="fill:#ffffff" />&#10;			<path
   class="st6"
   d="M 239.78,97.56 V 79.92 h 2.62 v 17.64 z"
   id="path11"
   style="fill:#ffffff" />&#10;			<path
   class="st6"
   d="m 251.57,97.56 -6.4,-17.64 h 2.77 l 5.27,14.53 5.29,-14.53 h 2.77 l -6.4,17.64 z"
   id="path12"
   style="fill:#ffffff" />&#10;			<path
   class="st6"
   d="M 263.67,97.56 V 79.92 h 10.95 v 2.62 h -8.33 v 4.26 h 6.7 v 2.62 h -6.7 v 5.52 h 8.33 v 2.62 z"
   id="path13"
   style="fill:#ffffff" />&#10;			<path
   class="st6"
   d="M 277.39,97.56 V 79.92 h 6.49 c 0.96,0 1.82,0.24 2.58,0.71 0.76,0.47 1.37,1.1 1.82,1.9 0.45,0.79 0.67,1.68 0.67,2.65 0,0.82 -0.15,1.57 -0.46,2.26 -0.31,0.68 -0.74,1.26 -1.29,1.74 -0.55,0.48 -1.18,0.82 -1.88,1.03 l 4.26,7.36 h -3.04 l -4.13,-7.12 H 280 v 7.12 h -2.61 z m 2.62,-9.74 h 3.59 c 0.5,0 0.96,-0.13 1.38,-0.38 0.42,-0.25 0.75,-0.59 0.99,-1.01 0.24,-0.42 0.37,-0.89 0.37,-1.42 0,-0.53 -0.12,-1.01 -0.37,-1.43 -0.24,-0.42 -0.57,-0.76 -0.99,-1.01 -0.42,-0.25 -0.88,-0.37 -1.38,-0.37 h -3.59 z"
   id="path14"
   style="fill:#ffffff" />&#10;			<path
   class="st6"
   d="m 298.53,97.88 c -0.97,0 -1.89,-0.15 -2.78,-0.45 -0.89,-0.3 -1.67,-0.74 -2.33,-1.3 -0.66,-0.56 -1.14,-1.24 -1.42,-2.02 l 2.46,-0.92 c 0.14,0.4 0.42,0.76 0.83,1.08 0.41,0.31 0.89,0.56 1.46,0.74 0.57,0.18 1.17,0.26 1.8,0.26 0.67,0 1.3,-0.11 1.9,-0.33 0.59,-0.22 1.07,-0.52 1.44,-0.91 0.37,-0.39 0.55,-0.84 0.55,-1.36 0,-0.54 -0.19,-0.98 -0.57,-1.32 -0.38,-0.34 -0.87,-0.62 -1.46,-0.82 -0.59,-0.2 -1.21,-0.35 -1.85,-0.45 -1.23,-0.2 -2.34,-0.5 -3.32,-0.88 -0.98,-0.39 -1.75,-0.93 -2.32,-1.63 -0.57,-0.7 -0.85,-1.6 -0.85,-2.72 0,-1.05 0.3,-1.97 0.9,-2.75 0.6,-0.78 1.39,-1.39 2.38,-1.82 0.99,-0.43 2.06,-0.65 3.21,-0.65 0.95,0 1.87,0.15 2.75,0.45 0.89,0.3 1.67,0.73 2.34,1.3 0.67,0.57 1.16,1.25 1.46,2.06 l -2.48,0.89 c -0.14,-0.41 -0.42,-0.77 -0.82,-1.08 -0.4,-0.31 -0.89,-0.55 -1.46,-0.72 -0.57,-0.18 -1.17,-0.26 -1.8,-0.26 -0.67,-0.01 -1.3,0.1 -1.88,0.32 -0.58,0.22 -1.06,0.53 -1.43,0.91 -0.37,0.39 -0.55,0.84 -0.55,1.35 0,0.63 0.17,1.11 0.52,1.44 0.34,0.33 0.81,0.57 1.39,0.72 0.58,0.16 1.24,0.3 1.96,0.42 1.16,0.19 2.23,0.49 3.22,0.92 0.99,0.43 1.78,1 2.38,1.71 0.6,0.71 0.9,1.58 0.9,2.61 0,1.04 -0.3,1.96 -0.9,2.74 -0.6,0.79 -1.39,1.39 -2.38,1.83 -1.02,0.43 -2.09,0.64 -3.25,0.64 z"
   id="path15"
   style="fill:#ffffff" />&#10;			<path
   class="st6"
   d="M 308.23,97.56 V 79.92 h 2.62 v 17.64 z"
   id="path16"
   style="fill:#ffffff" />&#10;			<path
   class="st6"
   d="m 327.6,79.92 v 2.62 h -5.62 v 15.02 h -2.62 V 82.54 h -5.61 v -2.62 z"
   id="path17"
   style="fill:#ffffff" />&#10;			<path
   class="st6"
   d="m 340.93,79.92 h 3.09 L 338,89.6 v 7.96 h -2.62 V 89.6 l -6.01,-9.68 h 3.09 l 4.23,6.82 z"
   id="path18"
   style="fill:#ffffff" />&#10;			<path
   class="st6"
   d="m 360.52,97.88 c -1.19,0 -2.31,-0.24 -3.36,-0.71 -1.05,-0.47 -1.97,-1.13 -2.77,-1.97 -0.8,-0.84 -1.42,-1.81 -1.88,-2.92 -0.46,-1.11 -0.68,-2.29 -0.68,-3.55 0,-1.26 0.23,-2.44 0.68,-3.55 0.45,-1.11 1.08,-2.08 1.88,-2.92 0.8,-0.84 1.72,-1.5 2.77,-1.97 1.05,-0.47 2.17,-0.71 3.36,-0.71 1.2,0 2.33,0.24 3.38,0.71 1.05,0.47 1.97,1.13 2.77,1.97 0.8,0.84 1.42,1.81 1.87,2.92 0.45,1.1 0.67,2.29 0.67,3.55 0,1.26 -0.22,2.44 -0.67,3.55 -0.45,1.1 -1.07,2.08 -1.87,2.92 -0.8,0.84 -1.72,1.5 -2.77,1.97 -1.05,0.48 -2.18,0.71 -3.38,0.71 z m 0,-2.62 c 0.84,0 1.63,-0.17 2.36,-0.52 0.73,-0.34 1.38,-0.82 1.93,-1.42 0.56,-0.6 1,-1.29 1.31,-2.08 0.31,-0.79 0.47,-1.62 0.47,-2.51 0,-0.89 -0.16,-1.73 -0.47,-2.52 -0.31,-0.79 -0.75,-1.48 -1.31,-2.09 -0.56,-0.61 -1.2,-1.07 -1.93,-1.41 -0.73,-0.34 -1.52,-0.51 -2.36,-0.51 -0.84,0 -1.63,0.17 -2.36,0.52 -0.73,0.34 -1.38,0.82 -1.93,1.42 -0.55,0.6 -1,1.29 -1.31,2.08 -0.31,0.79 -0.47,1.62 -0.47,2.51 0,0.9 0.16,1.74 0.47,2.53 0.32,0.79 0.75,1.48 1.31,2.08 0.56,0.6 1.2,1.07 1.93,1.41 0.74,0.34 1.52,0.51 2.36,0.51 z"
   id="path19"
   style="fill:#ffffff" />&#10;			<path
   class="st6"
   d="M 371.74,97.56 V 79.92 h 10.4 v 2.62 h -7.77 v 4.26 h 6.56 v 2.62 h -6.56 v 8.14 z"
   id="path20"
   style="fill:#ffffff" />&#10;			<path
   class="st6"
   d="m 398.11,97.88 c -1.19,0 -2.31,-0.24 -3.36,-0.71 -1.05,-0.47 -1.97,-1.13 -2.77,-1.97 -0.79,-0.84 -1.42,-1.81 -1.87,-2.92 -0.45,-1.11 -0.67,-2.29 -0.67,-3.55 0,-1.26 0.22,-2.44 0.67,-3.55 0.45,-1.11 1.07,-2.08 1.87,-2.92 0.8,-0.84 1.72,-1.49 2.77,-1.97 1.05,-0.47 2.17,-0.71 3.36,-0.71 1.43,0 2.74,0.33 3.94,1 1.2,0.67 2.2,1.55 2.99,2.65 l -2.33,1.25 c -0.55,-0.69 -1.22,-1.24 -2.03,-1.65 -0.81,-0.41 -1.66,-0.62 -2.57,-0.62 -0.84,0 -1.62,0.17 -2.36,0.52 -0.73,0.34 -1.37,0.81 -1.93,1.41 -0.55,0.6 -0.99,1.29 -1.3,2.08 -0.31,0.79 -0.47,1.63 -0.47,2.52 0,0.9 0.16,1.74 0.47,2.53 0.31,0.79 0.75,1.48 1.3,2.08 0.56,0.6 1.2,1.07 1.93,1.41 0.73,0.34 1.51,0.51 2.34,0.51 0.92,0 1.79,-0.21 2.59,-0.62 0.8,-0.42 1.47,-0.97 2.01,-1.66 l 2.33,1.27 c -0.79,1.1 -1.79,1.98 -2.99,2.64 -1.18,0.65 -2.49,0.98 -3.92,0.98 z"
   id="path21"
   style="fill:#ffffff" />&#10;			<path
   class="st6"
   d="m 413.72,79.92 h 3.06 l 6.41,17.64 h -2.77 l -1.22,-3.35 h -7.9 l -1.21,3.35 h -2.79 z m -1.45,11.66 h 5.96 l -2.99,-8.19 z"
   id="path22"
   style="fill:#ffffff" />&#10;			<path
   class="st6"
   d="M 425.71,97.56 V 79.92 h 2.62 v 15.02 h 7.6 v 2.62 z"
   id="path23"
   style="fill:#ffffff" />&#10;			<path
   class="st6"
   d="M 439.08,97.56 V 79.92 h 2.62 v 17.64 z"
   id="path24"
   style="fill:#ffffff" />&#10;			<path
   class="st6"
   d="M 445.1,97.56 V 79.92 h 10.4 v 2.62 h -7.77 v 4.26 h 6.56 v 2.62 h -6.56 v 8.14 z"
   id="path25"
   style="fill:#ffffff" />&#10;			<path
   class="st6"
   d="m 465.45,97.88 c -1.19,0 -2.31,-0.24 -3.36,-0.71 -1.05,-0.47 -1.97,-1.13 -2.77,-1.97 -0.8,-0.84 -1.42,-1.81 -1.88,-2.92 -0.45,-1.1 -0.68,-2.29 -0.68,-3.55 0,-1.26 0.23,-2.44 0.68,-3.55 0.45,-1.1 1.08,-2.08 1.88,-2.92 0.8,-0.84 1.72,-1.5 2.77,-1.97 1.05,-0.47 2.17,-0.71 3.36,-0.71 1.2,0 2.33,0.24 3.38,0.71 1.05,0.47 1.97,1.13 2.77,1.97 0.8,0.84 1.42,1.81 1.87,2.92 0.45,1.11 0.67,2.29 0.67,3.55 0,1.26 -0.23,2.44 -0.67,3.55 -0.44,1.11 -1.07,2.08 -1.87,2.92 -0.8,0.84 -1.72,1.5 -2.77,1.97 -1.05,0.48 -2.17,0.71 -3.38,0.71 z m 0,-2.62 c 0.84,0 1.62,-0.17 2.36,-0.52 0.73,-0.34 1.38,-0.82 1.93,-1.42 0.56,-0.6 1,-1.29 1.31,-2.08 0.32,-0.79 0.47,-1.62 0.47,-2.51 0,-0.89 -0.16,-1.73 -0.47,-2.52 -0.31,-0.79 -0.75,-1.48 -1.31,-2.09 -0.56,-0.61 -1.2,-1.07 -1.93,-1.41 -0.73,-0.34 -1.52,-0.51 -2.36,-0.51 -0.84,0 -1.63,0.17 -2.36,0.52 -0.73,0.35 -1.38,0.82 -1.93,1.42 -0.56,0.6 -1,1.29 -1.31,2.08 -0.32,0.79 -0.47,1.62 -0.47,2.51 0,0.9 0.16,1.74 0.47,2.53 0.31,0.79 0.75,1.48 1.31,2.08 0.56,0.6 1.2,1.07 1.93,1.41 0.74,0.34 1.52,0.51 2.36,0.51 z"
   id="path26"
   style="fill:#ffffff" />&#10;			<path
   class="st6"
   d="M 476.67,97.56 V 79.92 h 6.49 c 0.96,0 1.82,0.24 2.58,0.71 0.76,0.47 1.37,1.1 1.82,1.9 0.45,0.8 0.67,1.68 0.67,2.65 0,0.82 -0.15,1.57 -0.46,2.26 -0.31,0.68 -0.74,1.26 -1.29,1.74 -0.55,0.48 -1.18,0.82 -1.88,1.03 l 4.26,7.36 h -3.04 l -4.13,-7.12 h -2.41 v 7.12 h -2.61 z m 2.62,-9.74 h 3.59 c 0.5,0 0.96,-0.13 1.38,-0.38 0.42,-0.25 0.75,-0.59 0.99,-1.01 0.24,-0.42 0.37,-0.89 0.37,-1.42 0,-0.53 -0.12,-1.01 -0.37,-1.43 -0.24,-0.42 -0.57,-0.76 -0.99,-1.01 -0.42,-0.25 -0.88,-0.37 -1.38,-0.37 h -3.59 z"
   id="path27"
   style="fill:#ffffff" />&#10;			<path
   class="st6"
   d="M 491.52,97.56 V 79.92 h 2.83 l 8.1,12.9 v -12.9 h 2.62 v 17.64 h -2.83 l -8.1,-12.9 v 12.9 z"
   id="path28"
   style="fill:#ffffff" />&#10;			<path
   class="st6"
   d="M 508.48,97.56 V 79.92 h 2.62 v 17.64 z"
   id="path29"
   style="fill:#ffffff" />&#10;			<path
   class="st6"
   d="m 520.41,79.92 h 3.06 l 6.41,17.64 h -2.77 l -1.22,-3.35 h -7.9 l -1.21,3.35 H 514 Z m -1.44,11.66 h 5.96 l -2.99,-8.19 z"
   id="path30"
   style="fill:#ffffff" />&#10;			<path
   class="st6"
   d="M 538.46,97.56 V 79.92 h 2.83 l 8.1,12.9 v -12.9 h 2.62 v 17.64 h -2.83 l -8.1,-12.9 v 12.9 z"
   id="path31"
   style="fill:#ffffff" />&#10;			<path
   class="st6"
   d="M 555.04,97.56 V 79.92 h 10.95 v 2.62 h -8.33 v 4.26 h 6.7 v 2.62 h -6.7 v 5.52 h 8.33 v 2.62 z"
   id="path32"
   style="fill:#ffffff" />&#10;			<path
   class="st6"
   d="m 582.1,79.92 v 2.62 h -5.62 v 15.02 h -2.62 V 82.54 h -5.61 v -2.62 z"
   id="path33"
   style="fill:#ffffff" />&#10;			<path
   class="st6"
   d="m 588.5,97.56 -4.51,-17.64 h 2.7 l 3.3,12.94 3.29,-12.94 h 2.38 l 3.3,12.94 3.3,-12.94 h 2.7 l -4.49,17.64 h -3.01 l -2.99,-11.68 -2.99,11.68 z"
   id="path34"
   style="fill:#ffffff" />&#10;			<path
   class="st6"
   d="m 615.54,97.88 c -1.19,0 -2.31,-0.24 -3.36,-0.71 -1.05,-0.47 -1.97,-1.13 -2.77,-1.97 -0.8,-0.84 -1.42,-1.81 -1.88,-2.92 -0.45,-1.1 -0.68,-2.29 -0.68,-3.55 0,-1.26 0.23,-2.44 0.68,-3.55 0.45,-1.1 1.08,-2.08 1.88,-2.92 0.8,-0.84 1.72,-1.5 2.77,-1.97 1.05,-0.47 2.17,-0.71 3.36,-0.71 1.2,0 2.33,0.24 3.38,0.71 1.05,0.47 1.97,1.13 2.77,1.97 0.8,0.84 1.42,1.81 1.87,2.92 0.45,1.11 0.67,2.29 0.67,3.55 0,1.26 -0.23,2.44 -0.67,3.55 -0.44,1.11 -1.07,2.08 -1.87,2.92 -0.8,0.84 -1.72,1.5 -2.77,1.97 -1.05,0.48 -2.18,0.71 -3.38,0.71 z m 0,-2.62 c 0.84,0 1.62,-0.17 2.36,-0.52 0.73,-0.34 1.38,-0.82 1.93,-1.42 0.56,-0.6 1,-1.29 1.31,-2.08 0.32,-0.79 0.47,-1.62 0.47,-2.51 0,-0.89 -0.16,-1.73 -0.47,-2.52 -0.31,-0.79 -0.75,-1.48 -1.31,-2.09 -0.56,-0.61 -1.2,-1.07 -1.93,-1.41 -0.73,-0.34 -1.52,-0.51 -2.36,-0.51 -0.84,0 -1.63,0.17 -2.36,0.52 -0.73,0.35 -1.38,0.82 -1.93,1.42 -0.56,0.6 -1,1.29 -1.31,2.08 -0.32,0.79 -0.47,1.62 -0.47,2.51 0,0.9 0.16,1.74 0.47,2.53 0.31,0.79 0.75,1.48 1.31,2.08 0.56,0.6 1.2,1.07 1.93,1.41 0.74,0.34 1.52,0.51 2.36,0.51 z"
   id="path35"
   style="fill:#ffffff" />&#10;			<path
   class="st6"
   d="M 626.76,97.56 V 79.92 h 6.49 c 0.96,0 1.82,0.24 2.58,0.71 0.76,0.47 1.37,1.1 1.82,1.9 0.45,0.8 0.67,1.68 0.67,2.65 0,0.82 -0.15,1.57 -0.46,2.26 -0.31,0.68 -0.74,1.26 -1.29,1.74 -0.55,0.48 -1.18,0.82 -1.88,1.03 l 4.26,7.36 h -3.04 l -4.13,-7.12 h -2.41 v 7.12 h -2.61 z m 2.62,-9.74 h 3.59 c 0.5,0 0.96,-0.13 1.38,-0.38 0.42,-0.25 0.75,-0.59 0.99,-1.01 0.24,-0.42 0.37,-0.89 0.37,-1.42 0,-0.53 -0.12,-1.01 -0.37,-1.43 -0.24,-0.42 -0.57,-0.76 -0.99,-1.01 -0.42,-0.25 -0.88,-0.37 -1.38,-0.37 h -3.59 z"
   id="path36"
   style="fill:#ffffff" />&#10;			<path
   class="st6"
   d="m 653.96,97.56 h -3.4 l -5.25,-7.27 -1.07,1.3 v 5.97 h -2.62 V 79.92 h 2.62 v 7.6 l 6.35,-7.6 h 3.43 l -6.98,8.33 z"
   id="path37"
   style="fill:#ffffff" />&#10;			<path
   class="st6"
   d="m 670.16,97.88 c -1.19,0 -2.31,-0.24 -3.36,-0.71 -1.05,-0.47 -1.97,-1.13 -2.77,-1.97 -0.8,-0.84 -1.42,-1.81 -1.88,-2.92 -0.45,-1.1 -0.68,-2.29 -0.68,-3.55 0,-1.26 0.23,-2.44 0.68,-3.55 0.45,-1.1 1.08,-2.08 1.88,-2.92 0.8,-0.84 1.72,-1.5 2.77,-1.97 1.05,-0.47 2.17,-0.71 3.36,-0.71 1.2,0 2.33,0.24 3.38,0.71 1.05,0.47 1.97,1.13 2.77,1.97 0.8,0.84 1.42,1.81 1.87,2.92 0.45,1.11 0.67,2.29 0.67,3.55 0,1.26 -0.23,2.44 -0.67,3.55 -0.44,1.11 -1.07,2.08 -1.87,2.92 -0.8,0.84 -1.72,1.5 -2.77,1.97 -1.05,0.48 -2.18,0.71 -3.38,0.71 z m 0,-2.62 c 0.84,0 1.62,-0.17 2.36,-0.52 0.73,-0.34 1.38,-0.82 1.93,-1.42 0.56,-0.6 1,-1.29 1.31,-2.08 0.32,-0.79 0.47,-1.62 0.47,-2.51 0,-0.89 -0.16,-1.73 -0.47,-2.52 -0.31,-0.79 -0.75,-1.48 -1.31,-2.09 -0.56,-0.61 -1.2,-1.07 -1.93,-1.41 -0.73,-0.34 -1.52,-0.51 -2.36,-0.51 -0.84,0 -1.63,0.17 -2.36,0.52 -0.73,0.35 -1.38,0.82 -1.93,1.42 -0.56,0.6 -1,1.29 -1.31,2.08 -0.32,0.79 -0.47,1.62 -0.47,2.51 0,0.9 0.16,1.74 0.47,2.53 0.31,0.79 0.75,1.48 1.31,2.08 0.56,0.6 1.2,1.07 1.93,1.41 0.74,0.34 1.52,0.51 2.36,0.51 z"
   id="path38"
   style="fill:#ffffff" />&#10;			<path
   class="st6"
   d="M 681.38,97.56 V 79.92 h 10.4 v 2.62 H 684 v 4.26 h 6.56 v 2.62 H 684 v 8.14 z"
   id="path39"
   style="fill:#ffffff" />&#10;		</g>&#10;	</g><g
     id="g118"><g
       id="g115"
       style="fill:#ffffff"><path
         class="st4"
         d="m 188.01,225.02 c -4.33,5.97 -11.25,8.96 -20.77,8.96 -9.52,0 -16.5,-3 -20.95,-8.99 -4.44,-5.99 -6.66,-15.03 -6.66,-27.12 V 141.1 c 0,-22.76 9.29,-34.14 27.86,-34.14 9.59,0 16.49,2.89 20.7,8.67 4.21,5.78 6.31,14.27 6.31,25.46 v 56.77 c 0,12.14 -2.17,21.19 -6.49,27.16 z m -27.68,-11.71 c 1.1,2.87 3.37,4.3 6.81,4.3 3.43,0 5.69,-1.47 6.77,-4.41 1.08,-2.94 1.62,-7.98 1.62,-15.13 v -57.83 c 0,-5.88 -0.55,-10.17 -1.66,-12.87 -1.11,-2.7 -3.27,-4.06 -6.49,-4.06 -3.22,0 -5.48,1.35 -6.77,4.06 -1.29,2.7 -1.94,6.97 -1.94,12.8 v 57.9 c 0,7.3 0.55,12.37 1.66,15.24 z"
         id="path5"
         style="fill:#ffffff" /><path
         class="st4"
         d="m 203.01,197.65 v -11.07 h 17.91 v 12.48 c 0,6.91 0.59,11.77 1.76,14.56 1.17,2.8 3.39,4.2 6.63,4.2 3.24,0 5.4,-1.15 6.45,-3.46 1.06,-2.3 1.59,-6.07 1.59,-11.28 0,-5.22 -0.94,-9.77 -2.82,-13.65 -1.88,-3.88 -4.87,-7.93 -8.96,-12.17 l -9.17,-9.45 c -4.28,-4.47 -7.61,-9.1 -9.98,-13.89 -2.38,-4.8 -3.56,-10.34 -3.56,-16.64 0,-10.25 1.97,-17.87 5.92,-22.85 3.95,-4.98 10.74,-7.48 20.38,-7.48 9.64,0 16.16,2.9 19.57,8.71 3.41,5.81 5.11,14.28 5.11,25.43 v 7.69 h -17.42 v -8.89 c 0,-6.02 -0.52,-10.33 -1.55,-12.94 -1.04,-2.61 -3.02,-3.91 -5.96,-3.91 -2.94,0 -5.06,0.99 -6.35,2.96 -1.29,1.97 -1.94,4.94 -1.94,8.89 0,3.95 0.66,7.1 1.97,9.45 1.32,2.35 3.69,5.36 7.12,9.03 l 10.23,11.07 c 5.12,5.55 8.99,11.17 11.6,16.86 2.61,5.69 3.91,11.9 3.91,18.62 0,11.61 -1.95,20.19 -5.85,25.74 -3.9,5.55 -10.73,8.32 -20.49,8.32 -9.76,0 -16.55,-3.09 -20.38,-9.27 -3.81,-6.19 -5.72,-15.21 -5.72,-27.06 z"
         id="path6"
         style="fill:#ffffff" /><path
         class="st4"
         d="M 264.17,232.57 V 108.44 h 28.49 c 9.64,0 16.23,2.93 19.78,8.78 3.55,5.85 5.42,14.59 5.61,26.2 v 2.61 c 0,12.32 -1.75,21.66 -5.25,28.03 -3.5,6.37 -10,9.56 -19.5,9.56 h -10.23 v 48.95 z m 18.9,-64.54 h 6.49 c 4,0 6.59,-1.54 7.79,-4.62 1.2,-3.08 1.8,-8.95 1.8,-17.6 v -2.4 c -0.05,-7.33 -0.69,-12.58 -1.94,-15.73 -1.25,-3.15 -3.75,-4.73 -7.51,-4.73 h -6.63 z"
         id="path7"
         style="fill:#ffffff" /><path
         class="st4"
         d="m 373.47,225.02 c -4.33,5.97 -11.25,8.96 -20.77,8.96 -9.52,0 -16.5,-3 -20.95,-8.99 -4.44,-5.99 -6.66,-15.03 -6.66,-27.12 V 141.1 c 0,-22.76 9.28,-34.14 27.86,-34.14 9.59,0 16.49,2.89 20.7,8.67 4.21,5.78 6.31,14.27 6.31,25.46 v 56.77 c 0,12.14 -2.17,21.19 -6.49,27.16 z m -27.68,-11.71 c 1.1,2.87 3.37,4.3 6.81,4.3 3.43,0 5.69,-1.47 6.77,-4.41 1.08,-2.94 1.62,-7.98 1.62,-15.13 v -57.83 c 0,-5.88 -0.55,-10.17 -1.66,-12.87 -1.11,-2.7 -3.27,-4.06 -6.49,-4.06 -3.22,0 -5.48,1.35 -6.77,4.06 -1.29,2.7 -1.94,6.97 -1.94,12.8 v 57.9 c 0,7.3 0.55,12.37 1.66,15.24 z"
         id="path8"
         style="fill:#ffffff" /></g><g
       id="g117"><g
         id="g71"
         style="fill:#ffffff">&#10;		<g
   id="g43"
   style="fill:#ffffff">&#10;			<g
   transform="translate(1065.8017,603.80894)"
   id="g42"
   style="fill:#ffffff">&#10;				<g
   id="g41"
   style="fill:#ffffff">&#10;					<path
   class="st6"
   d="m -661.15,-447.6 c 0.18,0.46 0.44,0.8 0.78,1.02 0.35,0.22 0.83,0.33 1.44,0.33 0.61,0 1.08,-0.11 1.41,-0.33 0.35,-0.22 0.62,-0.57 0.8,-1.05 0.42,-1.18 0.64,-3.27 0.64,-6.28 v -24.97 c 0,-2.44 -0.22,-4.19 -0.66,-5.26 -0.19,-0.46 -0.44,-0.79 -0.78,-1 -0.32,-0.2 -0.76,-0.3 -1.33,-0.3 -0.55,0 -1.01,0.11 -1.36,0.33 -0.35,0.22 -0.64,0.55 -0.86,1 -0.24,0.5 -0.43,1.19 -0.55,2.08 -0.13,0.89 -0.19,1.93 -0.19,3.13 v 25 c 0,3.03 0.22,5.13 0.66,6.3 z m 11.85,5.78 c -1.02,1.38 -2.33,2.43 -3.93,3.13 -1.61,0.7 -3.49,1.05 -5.65,1.05 -4.37,0 -7.61,-1.4 -9.69,-4.21 -1.99,-2.73 -2.99,-6.78 -2.99,-12.15 v -24.53 c 0,-5.05 1.07,-8.9 3.21,-11.54 2.16,-2.64 5.35,-3.96 9.58,-3.96 4.39,0 7.57,1.36 9.55,4.07 1.9,2.64 2.85,6.45 2.85,11.43 V -454 c 0,2.68 -0.24,5.03 -0.72,7.06 -0.48,2.04 -1.21,3.74 -2.21,5.12 z"
   id="path40"
   style="fill:#ffffff" />&#10;				</g>&#10;			</g>&#10;		</g>&#10;		<g
   id="g46"
   style="fill:#ffffff">&#10;			<g
   transform="translate(1082.9748,603.80894)"
   id="g45"
   style="fill:#ffffff">&#10;				<g
   id="g44"
   style="fill:#ffffff">&#10;					<path
   class="st6"
   d="m -657.64,-439.02 v -54.37 h 13.07 c 1.07,0 2.06,0.1 2.99,0.28 0.94,0.17 1.8,0.42 2.57,0.75 0.78,0.33 1.47,0.77 2.08,1.3 0.61,0.54 1.12,1.16 1.55,1.85 0.81,1.35 1.42,2.99 1.83,4.93 0.42,1.94 0.65,4.19 0.69,6.76 v 1.14 c 0,1.81 -0.1,3.47 -0.28,4.98 -0.17,1.52 -0.43,2.9 -0.78,4.15 -0.33,1.26 -0.78,2.37 -1.33,3.35 -0.54,1 -1.25,1.84 -2.13,2.52 -0.89,0.69 -1.9,1.19 -3.05,1.52 -1.15,0.32 -2.44,0.47 -3.88,0.47 h -3.65 v 21.15 h -9.69 v -0.78 z m 9.69,-28.63 h 2.02 c 1.38,0 2.27,-0.51 2.66,-1.52 0.48,-1.23 0.72,-3.67 0.72,-7.31 v -1.05 c 0,-1.51 -0.08,-2.82 -0.22,-3.93 -0.13,-1.11 -0.32,-1.97 -0.55,-2.57 -0.21,-0.53 -0.51,-0.92 -0.91,-1.16 -0.39,-0.26 -0.93,-0.39 -1.63,-0.39 h -2.08 v 17.93 z"
   id="path43"
   style="fill:#ffffff" />&#10;				</g>&#10;			</g>&#10;		</g>&#10;		<g
   id="g49"
   style="fill:#ffffff">&#10;			<g
   transform="translate(1099.2024,603.80894)"
   id="g48"
   style="fill:#ffffff">&#10;				<g
   id="g47"
   style="fill:#ffffff">&#10;					<path
   class="st6"
   d="m -645.11,-439.02 v -54.37 h 19.49 v 8.55 h -9.8 v 14.09 h 9.3 v 8.39 h -9.3 v 15.53 h 10.16 v 8.58 h -19.85 z"
   id="path46"
   style="fill:#ffffff" />&#10;				</g>&#10;			</g>&#10;		</g>&#10;		<g
   id="g52"
   style="fill:#ffffff">&#10;			<g
   transform="translate(1113.2297,603.80894)"
   id="g51"
   style="fill:#ffffff">&#10;				<g
   id="g50"
   style="fill:#ffffff">&#10;					<path
   class="st6"
   d="m -634.29,-439.02 v -54.37 h 7.7 l 0.19,0.53 9.63,27.41 -0.36,-9.63 v -18.3 h 8.86 v 55.15 h -7.09 l -0.19,-0.53 -10.02,-28.6 0.3,9.14 v 19.99 h -9.03 v -0.79 z"
   id="path49"
   style="fill:#ffffff" />&#10;				</g>&#10;			</g>&#10;		</g>&#10;		<g
   id="g55"
   style="fill:#ffffff">&#10;			<g
   transform="translate(1137.915,603.80894)"
   id="g54"
   style="fill:#ffffff">&#10;				<g
   id="g53"
   style="fill:#ffffff">&#10;					<path
   class="st6"
   d="m -616.31,-454.11 v -5.54 h 9.27 v 6.15 c 0,0.96 0.03,1.84 0.08,2.63 0.06,0.8 0.12,1.47 0.22,2.02 0.11,0.55 0.24,1.01 0.39,1.36 0.2,0.46 0.47,0.8 0.8,1.02 0.33,0.22 0.78,0.33 1.36,0.33 1.07,0 1.77,-0.35 2.1,-1.05 0.18,-0.42 0.33,-1.02 0.44,-1.8 0.11,-0.78 0.17,-1.7 0.17,-2.77 0,-2.12 -0.38,-3.97 -1.14,-5.56 -0.39,-0.79 -0.9,-1.61 -1.52,-2.44 -0.63,-0.84 -1.37,-1.72 -2.21,-2.63 l -3.96,-4.07 c -1.9,-1.97 -3.39,-4.04 -4.46,-6.2 -1.07,-2.16 -1.61,-4.66 -1.61,-7.5 0,-4.61 0.9,-8.06 2.71,-10.35 1.86,-2.34 5,-3.52 9.41,-3.52 2.17,0 4.03,0.35 5.56,1.02 1.55,0.69 2.73,1.73 3.54,3.13 0.79,1.32 1.37,2.92 1.74,4.82 0.37,1.9 0.55,4.08 0.55,6.53 v 4.1 h -9.03 v -4.62 c 0,-0.83 -0.03,-1.59 -0.08,-2.3 -0.06,-0.7 -0.13,-1.29 -0.22,-1.77 -0.1,-0.48 -0.19,-0.89 -0.3,-1.22 -0.19,-0.42 -0.43,-0.73 -0.72,-0.91 -0.28,-0.2 -0.68,-0.3 -1.19,-0.3 -0.96,0 -1.65,0.32 -2.08,0.94 -0.48,0.72 -0.72,1.85 -0.72,3.41 0,0.8 0.06,1.51 0.19,2.13 0.15,0.61 0.34,1.15 0.58,1.61 0.51,0.94 1.5,2.19 2.93,3.74 l 4.43,4.79 c 1.14,1.22 2.14,2.46 2.99,3.71 0.87,1.24 1.59,2.49 2.16,3.77 1.18,2.57 1.77,5.36 1.77,8.36 0,2.57 -0.22,4.81 -0.66,6.73 -0.44,1.92 -1.12,3.53 -2.02,4.82 -0.93,1.32 -2.18,2.29 -3.77,2.93 -1.59,0.66 -3.48,1 -5.68,1 -4.51,0 -7.66,-1.45 -9.47,-4.37 -1.69,-2.83 -2.55,-6.87 -2.55,-12.13 z"
   id="path52"
   style="fill:#ffffff" />&#10;				</g>&#10;			</g>&#10;		</g>&#10;		<g
   id="g58"
   style="fill:#ffffff">&#10;			<g
   transform="translate(1153.4722,603.80894)"
   id="g57"
   style="fill:#ffffff">&#10;				<g
   id="g56"
   style="fill:#ffffff">&#10;					<path
   class="st6"
   d="m -593.48,-447.6 c 0.18,0.46 0.44,0.8 0.78,1.02 0.35,0.22 0.83,0.33 1.44,0.33 0.61,0 1.08,-0.11 1.41,-0.33 0.35,-0.22 0.62,-0.57 0.8,-1.05 0.42,-1.18 0.64,-3.27 0.64,-6.28 v -24.97 c 0,-2.44 -0.22,-4.19 -0.66,-5.26 -0.19,-0.46 -0.44,-0.79 -0.78,-1 -0.32,-0.2 -0.76,-0.3 -1.33,-0.3 -0.55,0 -1.01,0.11 -1.36,0.33 -0.35,0.22 -0.64,0.55 -0.86,1 -0.24,0.5 -0.43,1.19 -0.55,2.08 -0.13,0.89 -0.19,1.93 -0.19,3.13 v 25 c 0,3.03 0.22,5.13 0.66,6.3 z m 11.85,5.78 c -1.02,1.38 -2.33,2.43 -3.93,3.13 -1.61,0.7 -3.49,1.05 -5.65,1.05 -4.37,0 -7.61,-1.4 -9.69,-4.21 -1.99,-2.73 -2.99,-6.78 -2.99,-12.15 v -24.53 c 0,-5.05 1.07,-8.9 3.21,-11.54 2.16,-2.64 5.35,-3.96 9.58,-3.96 4.39,0 7.57,1.36 9.55,4.07 1.9,2.64 2.85,6.45 2.85,11.43 V -454 c 0,2.68 -0.24,5.03 -0.72,7.06 -0.48,2.04 -1.21,3.74 -2.21,5.12 z"
   id="path55"
   style="fill:#ffffff" />&#10;				</g>&#10;			</g>&#10;		</g>&#10;		<g
   id="g61"
   style="fill:#ffffff">&#10;			<g
   transform="translate(1170.6453,603.80894)"
   id="g60"
   style="fill:#ffffff">&#10;				<g
   id="g59"
   style="fill:#ffffff">&#10;					<path
   class="st6"
   d="m -568.1,-441.43 c -2.01,2.53 -5.2,3.79 -9.58,3.79 -4.37,0 -7.58,-1.27 -9.61,-3.79 -1.99,-2.47 -2.99,-6.26 -2.99,-11.35 v -40.64 h 9.69 v 40.48 c 0,2.73 0.11,4.35 0.33,4.84 0.11,0.3 0.24,0.57 0.39,0.8 0.15,0.24 0.29,0.47 0.44,0.69 0.24,0.32 0.82,0.47 1.74,0.47 0.92,0 1.56,-0.25 1.91,-0.75 0.44,-0.57 0.71,-1.3 0.8,-2.19 0.03,-0.51 0.07,-1.09 0.11,-1.72 0.03,-0.64 0.06,-1.36 0.06,-2.16 v -40.48 h 9.66 v 40.64 c 0.02,5.13 -0.97,8.92 -2.95,11.37 z"
   id="path58"
   style="fill:#ffffff" />&#10;				</g>&#10;			</g>&#10;		</g>&#10;		<g
   id="g64"
   style="fill:#ffffff">&#10;			<g
   transform="translate(1188.1794,603.80894)"
   id="g63"
   style="fill:#ffffff">&#10;				<g
   id="g62"
   style="fill:#ffffff">&#10;					<path
   class="st6"
   d="m -564.92,-463.44 -1.83,-0.11 v 25.3 h -9.69 v -55.15 h 14.26 c 0.96,0 1.84,0.08 2.66,0.22 0.81,0.13 1.56,0.33 2.24,0.61 0.7,0.26 1.32,0.6 1.85,1.02 0.29,0.26 0.57,0.54 0.83,0.83 0.28,0.3 0.51,0.61 0.72,0.94 0.22,0.32 0.42,0.66 0.61,1.02 0.18,0.35 0.34,0.73 0.47,1.14 0.12,0.39 0.25,0.8 0.36,1.22 0.22,1.07 0.39,2.28 0.5,3.63 0.11,1.33 0.17,2.82 0.17,4.46 0,3.36 -0.37,5.94 -1.11,7.72 -0.52,1.33 -1.37,2.37 -2.55,3.13 1.18,0.71 2.05,1.88 2.6,3.54 0.39,1.18 0.67,2.91 0.86,5.18 0.18,2.26 0.28,5.14 0.28,8.64 0,1.57 0.01,3.03 0.03,4.37 0.01,1.35 0.03,2.46 0.06,3.32 0.01,0.87 0.04,1.57 0.08,2.1 0.03,0.54 0.06,0.87 0.08,1 l 0.42,1.05 h -9.75 l -0.19,-0.44 c -0.19,-0.37 -0.3,-1.56 -0.36,-3.6 -0.04,-2.03 -0.06,-5.74 -0.06,-11.13 0,-2.08 0,-3.69 0,-4.82 0,-1.11 -0.07,-2.03 -0.19,-2.77 -0.13,-0.73 -0.3,-1.25 -0.5,-1.52 -0.42,-0.55 -1.37,-0.86 -2.85,-0.9 z m -1.8,-8 h 2.49 c 0.18,0 0.35,-0.01 0.5,-0.03 0.17,-0.01 0.31,-0.03 0.44,-0.06 0.12,-0.01 0.25,-0.04 0.36,-0.08 0.11,-0.06 0.19,-0.1 0.25,-0.14 0.07,-0.06 0.15,-0.11 0.22,-0.17 0.39,-0.35 0.65,-1.01 0.8,-1.99 0.09,-0.51 0.15,-1.2 0.19,-2.08 0.06,-0.87 0.08,-1.86 0.08,-2.99 v -0.33 c 0,-2.78 -0.21,-4.57 -0.64,-5.34 -0.35,-0.62 -1.26,-0.94 -2.71,-0.94 h -1.99 v 14.15 z"
   id="path61"
   style="fill:#ffffff" />&#10;				</g>&#10;			</g>&#10;		</g>&#10;		<g
   id="g67"
   style="fill:#ffffff">&#10;			<g
   transform="translate(1205.5416,603.80894)"
   id="g66"
   style="fill:#ffffff">&#10;				<g
   id="g65"
   style="fill:#ffffff">&#10;					<path
   class="st6"
   d="m -541.83,-441.71 c -1.98,2.71 -5.08,4.07 -9.3,4.07 -4.23,0 -7.39,-1.44 -9.5,-4.32 -2.05,-2.77 -3.07,-6.73 -3.07,-11.88 v -23.34 c 0,-8.31 2.23,-13.52 6.7,-15.67 1.64,-0.78 3.61,-1.16 5.92,-1.16 3.99,0 6.99,1.29 9.03,3.85 2.03,2.57 3.05,6.3 3.05,11.18 v 8.11 h -9.41 v -7.61 c 0,-0.89 -0.03,-1.7 -0.08,-2.44 -0.06,-0.73 -0.14,-1.36 -0.25,-1.88 -0.1,-0.51 -0.19,-0.95 -0.3,-1.3 -0.19,-0.46 -0.44,-0.79 -0.75,-1 -0.32,-0.2 -0.75,-0.3 -1.3,-0.3 -0.37,0 -0.69,0.06 -0.94,0.17 -0.26,0.1 -0.49,0.24 -0.69,0.44 -0.19,0.21 -0.35,0.47 -0.5,0.8 -0.48,1.16 -0.72,2.99 -0.72,5.48 v 25.06 c 0,2.77 0.23,4.73 0.69,5.9 0.2,0.48 0.46,0.83 0.78,1.05 0.33,0.21 0.76,0.3 1.3,0.3 0.35,0 0.65,-0.03 0.91,-0.11 0.26,-0.09 0.48,-0.25 0.66,-0.47 0.18,-0.22 0.34,-0.48 0.47,-0.8 0.24,-0.57 0.42,-1.36 0.53,-2.35 0.12,-1.01 0.19,-2.22 0.19,-3.63 v -8.42 h 9.52 v 8.33 c 0,5.35 -0.98,9.33 -2.94,11.94 z"
   id="path64"
   style="fill:#ffffff" />&#10;				</g>&#10;			</g>&#10;		</g>&#10;		<g
   id="g70"
   style="fill:#ffffff">&#10;			<g
   transform="translate(1222.0615,603.80894)"
   id="g69"
   style="fill:#ffffff">&#10;				<g
   id="g68"
   style="fill:#ffffff">&#10;					<path
   class="st6"
   d="m -550.28,-439.02 v -54.37 h 19.49 v 8.55 h -9.8 v 14.09 h 9.3 v 8.39 h -9.3 v 15.53 h 10.16 v 8.58 h -19.85 z"
   id="path67"
   style="fill:#ffffff" />&#10;				</g>&#10;			</g>&#10;		</g>&#10;	</g><g
         id="g114"
         style="fill:#ffffff">&#10;		<g
   id="g74"
   style="fill:#ffffff">&#10;			<g
   transform="translate(1065.8017,636.58927)"
   id="g73"
   style="fill:#ffffff">&#10;				<g
   id="g72"
   style="fill:#ffffff">&#10;					<path
   class="st6"
   d="m -671.56,-406.38 v -54.37 h 13.07 c 1.07,0 2.06,0.1 2.99,0.28 0.94,0.17 1.8,0.42 2.57,0.75 0.78,0.33 1.47,0.77 2.08,1.3 0.61,0.54 1.12,1.16 1.55,1.85 0.81,1.35 1.42,2.99 1.83,4.93 0.42,1.94 0.65,4.19 0.69,6.76 v 1.14 c 0,1.81 -0.1,3.47 -0.28,4.98 -0.17,1.52 -0.43,2.9 -0.78,4.15 -0.33,1.26 -0.78,2.37 -1.33,3.35 -0.54,1 -1.25,1.84 -2.13,2.52 -0.89,0.69 -1.9,1.19 -3.05,1.52 -1.15,0.32 -2.44,0.47 -3.88,0.47 h -3.65 v 21.15 h -9.69 v -0.78 z m 9.69,-28.63 h 2.02 c 1.38,0 2.27,-0.51 2.66,-1.52 0.48,-1.23 0.72,-3.67 0.72,-7.31 v -1.05 c 0,-1.51 -0.08,-2.82 -0.22,-3.93 -0.13,-1.11 -0.32,-1.97 -0.55,-2.57 -0.21,-0.53 -0.51,-0.92 -0.91,-1.16 -0.39,-0.26 -0.93,-0.39 -1.63,-0.39 h -2.08 v 17.93 z"
   id="path71"
   style="fill:#ffffff" />&#10;				</g>&#10;			</g>&#10;		</g>&#10;		<g
   id="g77"
   style="fill:#ffffff">&#10;			<g
   transform="translate(1082.0293,636.58927)"
   id="g76"
   style="fill:#ffffff">&#10;				<g
   id="g75"
   style="fill:#ffffff">&#10;					<path
   class="st6"
   d="m -647.52,-430.8 -1.83,-0.11 v 25.3 h -9.69 v -55.15 h 14.26 c 0.96,0 1.84,0.08 2.66,0.22 0.81,0.13 1.56,0.33 2.24,0.61 0.7,0.26 1.32,0.6 1.85,1.02 0.29,0.26 0.57,0.54 0.83,0.83 0.28,0.3 0.51,0.61 0.72,0.94 0.22,0.32 0.42,0.66 0.61,1.02 0.18,0.35 0.34,0.73 0.47,1.14 0.12,0.39 0.25,0.8 0.36,1.22 0.22,1.07 0.39,2.28 0.5,3.63 0.11,1.33 0.17,2.82 0.17,4.46 0,3.36 -0.37,5.94 -1.11,7.72 -0.52,1.33 -1.37,2.37 -2.55,3.13 1.18,0.71 2.05,1.88 2.6,3.54 0.39,1.18 0.67,2.91 0.86,5.18 0.18,2.26 0.28,5.14 0.28,8.64 0,1.57 0.01,3.03 0.03,4.37 0.01,1.35 0.03,2.46 0.06,3.32 0.01,0.87 0.04,1.57 0.08,2.1 0.03,0.54 0.06,0.87 0.08,1 l 0.42,1.05 h -9.75 l -0.19,-0.44 c -0.19,-0.37 -0.3,-1.56 -0.36,-3.6 -0.04,-2.03 -0.06,-5.74 -0.06,-11.13 0,-2.08 0,-3.69 0,-4.82 0,-1.11 -0.07,-2.03 -0.19,-2.77 -0.13,-0.73 -0.3,-1.25 -0.5,-1.52 -0.42,-0.55 -1.37,-0.86 -2.85,-0.9 z m -1.79,-8 h 2.49 c 0.18,0 0.35,-0.01 0.5,-0.03 0.17,-0.01 0.31,-0.03 0.44,-0.06 0.12,-0.01 0.25,-0.04 0.36,-0.08 0.11,-0.06 0.19,-0.1 0.25,-0.14 0.07,-0.06 0.15,-0.11 0.22,-0.17 0.39,-0.35 0.65,-1.01 0.8,-1.99 0.09,-0.51 0.15,-1.2 0.19,-2.08 0.06,-0.87 0.08,-1.86 0.08,-2.99 v -0.33 c 0,-2.78 -0.21,-4.57 -0.64,-5.34 -0.35,-0.62 -1.26,-0.94 -2.71,-0.94 h -1.99 v 14.15 z"
   id="path74"
   style="fill:#ffffff" />&#10;				</g>&#10;			</g>&#10;		</g>&#10;		<g
   id="g80"
   style="fill:#ffffff">&#10;			<g
   transform="translate(1099.3915,636.58927)"
   id="g79"
   style="fill:#ffffff">&#10;				<g
   id="g78"
   style="fill:#ffffff">&#10;					<path
   class="st6"
   d="m -635.89,-414.96 c 0.18,0.46 0.44,0.8 0.78,1.02 0.35,0.22 0.83,0.33 1.44,0.33 0.61,0 1.08,-0.11 1.41,-0.33 0.35,-0.22 0.62,-0.57 0.8,-1.05 0.42,-1.18 0.64,-3.27 0.64,-6.28 v -24.97 c 0,-2.44 -0.22,-4.19 -0.66,-5.26 -0.19,-0.46 -0.44,-0.79 -0.78,-1 -0.32,-0.2 -0.76,-0.3 -1.33,-0.3 -0.55,0 -1.01,0.11 -1.36,0.33 -0.35,0.22 -0.64,0.55 -0.86,1 -0.24,0.5 -0.43,1.19 -0.55,2.08 -0.13,0.89 -0.19,1.93 -0.19,3.13 v 25 c 0,3.03 0.22,5.13 0.66,6.3 z m 11.85,5.78 c -1.02,1.38 -2.33,2.43 -3.93,3.13 -1.61,0.7 -3.49,1.05 -5.65,1.05 -4.37,0 -7.61,-1.4 -9.69,-4.21 -1.99,-2.73 -2.99,-6.78 -2.99,-12.15 v -24.53 c 0,-5.05 1.07,-8.9 3.21,-11.54 2.16,-2.64 5.35,-3.96 9.58,-3.96 4.39,0 7.57,1.36 9.55,4.07 1.9,2.64 2.85,6.45 2.85,11.43 v 24.53 c 0,2.68 -0.24,5.03 -0.72,7.06 -0.48,2.04 -1.21,3.74 -2.21,5.12 z"
   id="path77"
   style="fill:#ffffff" />&#10;				</g>&#10;			</g>&#10;		</g>&#10;		<g
   id="g83"
   style="fill:#ffffff">&#10;			<g
   transform="translate(1116.5646,636.58927)"
   id="g82"
   style="fill:#ffffff">&#10;				<g
   id="g81"
   style="fill:#ffffff">&#10;					<path
   class="st6"
   d="m -621.55,-405.08 c -3.64,0 -6.48,-1.43 -8.53,-4.29 -1.98,-2.78 -2.96,-7.02 -2.96,-12.71 v -23.28 c 0,-0.73 0.01,-1.44 0.06,-2.1 0.03,-0.66 0.09,-1.31 0.17,-1.94 0.09,-0.64 0.19,-1.25 0.3,-1.83 0.12,-0.59 0.28,-1.15 0.44,-1.69 0.17,-0.55 0.35,-1.07 0.55,-1.55 0.22,-0.48 0.45,-0.94 0.69,-1.38 0.26,-0.46 0.53,-0.89 0.83,-1.3 1.05,-1.4 2.39,-2.45 4.04,-3.16 1.66,-0.7 3.6,-1.05 5.81,-1.05 0.78,0 1.51,0.05 2.21,0.14 0.72,0.08 1.39,0.21 2.02,0.39 0.64,0.19 1.23,0.41 1.77,0.66 0.55,0.24 1.07,0.54 1.55,0.89 0.48,0.35 0.91,0.75 1.3,1.19 0.4,0.43 0.76,0.91 1.08,1.44 0.31,0.52 0.58,1.07 0.8,1.66 0.89,2.46 1.33,5.77 1.33,9.94 v 4.57 h -9.14 v -6.37 c 0,-2.34 -0.24,-3.95 -0.72,-4.82 -0.37,-0.72 -1.12,-1.08 -2.24,-1.08 -0.6,0 -1.07,0.11 -1.44,0.33 -0.37,0.21 -0.68,0.55 -0.91,1.02 -0.11,0.24 -0.21,0.55 -0.3,0.94 -0.1,0.37 -0.18,0.8 -0.25,1.3 -0.08,0.48 -0.13,1.05 -0.17,1.69 -0.04,0.63 -0.06,1.32 -0.06,2.05 v 23.23 c 0,1.7 0.06,3.15 0.19,4.35 0.12,1.2 0.3,2.1 0.53,2.71 0.22,0.55 0.51,0.96 0.89,1.22 0.39,0.24 0.89,0.36 1.52,0.36 0.61,0 1.11,-0.12 1.52,-0.39 0.4,-0.28 0.75,-0.73 1.02,-1.36 0.18,-0.42 0.34,-0.98 0.47,-1.66 0.12,-0.68 0.23,-1.48 0.3,-2.41 0.07,-0.94 0.11,-1.98 0.11,-3.13 v -6.45 h -4.1 v -7.48 h 12.76 v 30.81 h -5.04 l -0.11,-0.58 -0.72,-2.93 c -0.28,0.46 -0.6,0.89 -0.97,1.27 -0.35,0.39 -0.75,0.75 -1.19,1.08 -1.55,1.13 -3.36,1.7 -5.41,1.7 z"
   id="path80"
   style="fill:#ffffff" />&#10;				</g>&#10;			</g>&#10;		</g>&#10;		<g
   id="g86"
   style="fill:#ffffff">&#10;			<g
   transform="translate(1133.7549,636.58927)"
   id="g85"
   style="fill:#ffffff">&#10;				<g
   id="g84"
   style="fill:#ffffff">&#10;					<path
   class="st6"
   d="m -607.59,-430.8 -1.83,-0.11 v 25.3 h -9.69 v -55.15 h 14.26 c 0.96,0 1.84,0.08 2.66,0.22 0.81,0.13 1.56,0.33 2.24,0.61 0.7,0.26 1.32,0.6 1.85,1.02 0.29,0.26 0.57,0.54 0.83,0.83 0.28,0.3 0.51,0.61 0.72,0.94 0.22,0.32 0.42,0.66 0.61,1.02 0.18,0.35 0.34,0.73 0.47,1.14 0.12,0.39 0.25,0.8 0.36,1.22 0.22,1.07 0.39,2.28 0.5,3.63 0.11,1.33 0.17,2.82 0.17,4.46 0,3.36 -0.37,5.94 -1.11,7.72 -0.52,1.33 -1.37,2.37 -2.55,3.13 1.18,0.71 2.05,1.88 2.6,3.54 0.39,1.18 0.67,2.91 0.86,5.18 0.18,2.26 0.28,5.14 0.28,8.64 0,1.57 0.01,3.03 0.03,4.37 0.01,1.35 0.03,2.46 0.06,3.32 0.01,0.87 0.04,1.57 0.08,2.1 0.03,0.54 0.06,0.87 0.08,1 l 0.42,1.05 h -9.75 l -0.19,-0.44 c -0.19,-0.37 -0.3,-1.56 -0.36,-3.6 -0.04,-2.03 -0.06,-5.74 -0.06,-11.13 0,-2.08 0,-3.69 0,-4.82 0,-1.11 -0.07,-2.03 -0.19,-2.77 -0.13,-0.73 -0.3,-1.25 -0.5,-1.52 -0.43,-0.55 -1.38,-0.86 -2.85,-0.9 z m -1.8,-8 h 2.49 c 0.18,0 0.35,-0.01 0.5,-0.03 0.17,-0.01 0.31,-0.03 0.44,-0.06 0.12,-0.01 0.25,-0.04 0.36,-0.08 0.11,-0.06 0.19,-0.1 0.25,-0.14 0.07,-0.06 0.15,-0.11 0.22,-0.17 0.39,-0.35 0.65,-1.01 0.8,-1.99 0.09,-0.51 0.15,-1.2 0.19,-2.08 0.06,-0.87 0.08,-1.86 0.08,-2.99 v -0.33 c 0,-2.78 -0.21,-4.57 -0.64,-5.34 -0.35,-0.62 -1.26,-0.94 -2.71,-0.94 h -1.99 v 14.15 z"
   id="path83"
   style="fill:#ffffff" />&#10;				</g>&#10;			</g>&#10;		</g>&#10;		<g
   id="g89"
   style="fill:#ffffff">&#10;			<g
   transform="translate(1151.1171,636.58927)"
   id="g88"
   style="fill:#ffffff">&#10;				<g
   id="g87"
   style="fill:#ffffff">&#10;					<path
   class="st6"
   d="m -591.45,-423.24 -2.74,-20.63 -2.55,20.63 z m -16.69,16.75 7.64,-53.63 0.08,-0.64 h 12.1 l 0.11,0.64 8.14,53.63 0.11,0.89 h -9.16 l -0.08,-0.69 -1.19,-8.89 h -7.31 l -1.05,8.89 -0.11,0.69 h -9.41 z"
   id="path86"
   style="fill:#ffffff" />&#10;				</g>&#10;			</g>&#10;		</g>&#10;		<g
   id="g92"
   style="fill:#ffffff">&#10;			<g
   transform="translate(1167.8948,636.58927)"
   id="g91"
   style="fill:#ffffff">&#10;				<g
   id="g90"
   style="fill:#ffffff">&#10;					<path
   class="st6"
   d="m -592.76,-406.38 v -54.37 h 11.54 l 0.11,0.61 6.81,35.22 6.45,-35.19 0.11,-0.64 h 11.6 v 55.15 h -8.8 v -20.76 l 0.17,-9.44 -5.56,29.35 -0.11,0.61 h -7.75 l -0.14,-0.61 -5.84,-29.73 0.14,9.83 v 20.76 h -8.72 v -0.79 z"
   id="path89"
   style="fill:#ffffff" />&#10;				</g>&#10;			</g>&#10;		</g>&#10;		<g
   id="g95"
   style="fill:#ffffff">&#10;			<g
   transform="translate(1198.5795,636.58927)"
   id="g94"
   style="fill:#ffffff">&#10;				<g
   id="g93"
   style="fill:#ffffff">&#10;					<path
   class="st6"
   d="m -559.33,-414.96 c 0.18,0.46 0.44,0.8 0.78,1.02 0.35,0.22 0.83,0.33 1.44,0.33 0.61,0 1.08,-0.11 1.41,-0.33 0.35,-0.22 0.62,-0.57 0.8,-1.05 0.42,-1.18 0.64,-3.27 0.64,-6.28 v -24.97 c 0,-2.44 -0.22,-4.19 -0.66,-5.26 -0.19,-0.46 -0.44,-0.79 -0.78,-1 -0.32,-0.2 -0.76,-0.3 -1.33,-0.3 -0.55,0 -1.01,0.11 -1.36,0.33 -0.35,0.22 -0.64,0.55 -0.86,1 -0.24,0.5 -0.43,1.19 -0.55,2.08 -0.13,0.89 -0.19,1.93 -0.19,3.13 v 25 c 0,3.03 0.22,5.13 0.66,6.3 z m 11.85,5.78 c -1.02,1.38 -2.33,2.43 -3.93,3.13 -1.61,0.7 -3.49,1.05 -5.65,1.05 -4.37,0 -7.61,-1.4 -9.69,-4.21 -1.99,-2.73 -2.99,-6.78 -2.99,-12.15 v -24.53 c 0,-5.05 1.07,-8.9 3.21,-11.54 2.16,-2.64 5.35,-3.96 9.58,-3.96 4.39,0 7.57,1.36 9.55,4.07 1.9,2.64 2.85,6.45 2.85,11.43 v 24.53 c 0,2.68 -0.24,5.03 -0.72,7.06 -0.48,2.04 -1.21,3.74 -2.21,5.12 z"
   id="path92"
   style="fill:#ffffff" />&#10;				</g>&#10;			</g>&#10;		</g>&#10;		<g
   id="g98"
   style="fill:#ffffff">&#10;			<g
   transform="translate(1215.7526,636.58927)"
   id="g97"
   style="fill:#ffffff">&#10;				<g
   id="g96"
   style="fill:#ffffff">&#10;					<path
   class="st6"
   d="m -555.84,-406.38 v -54.37 h 19.91 v 8.64 h -10.24 v 12.71 h 9.52 v 8.67 h -9.52 v 25.14 h -9.66 v -0.79 z"
   id="path95"
   style="fill:#ffffff" />&#10;				</g>&#10;			</g>&#10;		</g>&#10;		<g
   id="g101"
   style="fill:#ffffff">&#10;			<g
   transform="translate(1229.4361,636.58927)"
   id="g100"
   style="fill:#ffffff">&#10;				<g
   id="g99"
   style="fill:#ffffff">&#10;					<path
   class="st6"
   d="m -545.28,-406.38 v -54.37 h 19.91 v 8.64 h -10.24 v 12.71 h 9.52 v 8.67 h -9.52 v 25.14 h -9.66 v -0.79 z"
   id="path98"
   style="fill:#ffffff" />&#10;				</g>&#10;			</g>&#10;		</g>&#10;		<g
   id="g104"
   style="fill:#ffffff">&#10;			<g
   transform="translate(1243.1195,636.58927)"
   id="g103"
   style="fill:#ffffff">&#10;				<g
   id="g102"
   style="fill:#ffffff">&#10;					<path
   class="st6"
   d="m -534.39,-406.38 v -54.37 h 9.69 v 55.15 h -9.69 z"
   id="path101"
   style="fill:#ffffff" />&#10;				</g>&#10;			</g>&#10;		</g>&#10;		<g
   id="g107"
   style="fill:#ffffff">&#10;			<g
   transform="translate(1252.6086,636.58927)"
   id="g106"
   style="fill:#ffffff">&#10;				<g
   id="g105"
   style="fill:#ffffff">&#10;					<path
   class="st6"
   d="m -506.16,-409.07 c -1.98,2.71 -5.08,4.07 -9.3,4.07 -4.23,0 -7.39,-1.44 -9.5,-4.32 -2.05,-2.77 -3.07,-6.73 -3.07,-11.88 v -23.34 c 0,-8.31 2.23,-13.52 6.7,-15.67 1.64,-0.78 3.61,-1.16 5.92,-1.16 3.99,0 6.99,1.29 9.03,3.85 2.03,2.57 3.05,6.3 3.05,11.18 v 8.11 h -9.41 v -7.61 c 0,-0.89 -0.03,-1.7 -0.08,-2.44 -0.06,-0.73 -0.14,-1.36 -0.25,-1.88 -0.1,-0.51 -0.19,-0.95 -0.3,-1.3 -0.19,-0.46 -0.44,-0.79 -0.75,-1 -0.32,-0.2 -0.75,-0.3 -1.3,-0.3 -0.37,0 -0.69,0.06 -0.94,0.17 -0.26,0.1 -0.49,0.24 -0.69,0.44 -0.19,0.21 -0.35,0.47 -0.5,0.8 -0.48,1.16 -0.72,2.99 -0.72,5.48 v 25.06 c 0,2.77 0.23,4.73 0.69,5.9 0.2,0.48 0.46,0.83 0.78,1.05 0.33,0.21 0.76,0.3 1.3,0.3 0.35,0 0.65,-0.03 0.91,-0.11 0.26,-0.09 0.48,-0.25 0.66,-0.47 0.18,-0.22 0.34,-0.48 0.47,-0.8 0.24,-0.57 0.42,-1.36 0.53,-2.35 0.12,-1.01 0.19,-2.22 0.19,-3.63 v -8.42 h 9.52 v 8.33 c -0.01,5.35 -0.99,9.33 -2.94,11.94 z"
   id="path104"
   style="fill:#ffffff" />&#10;				</g>&#10;			</g>&#10;		</g>&#10;		<g
   id="g110"
   style="fill:#ffffff">&#10;			<g
   transform="translate(1269.1285,636.58927)"
   id="g109"
   style="fill:#ffffff">&#10;				<g
   id="g108"
   style="fill:#ffffff">&#10;					<path
   class="st6"
   d="m -514.62,-406.38 v -54.37 h 19.49 v 8.55 h -9.8 v 14.09 h 9.3 v 8.39 h -9.3 v 15.53 h 10.16 v 8.58 h -19.85 z"
   id="path107"
   style="fill:#ffffff" />&#10;				</g>&#10;			</g>&#10;		</g>&#10;		<g
   id="g113"
   style="fill:#ffffff">&#10;			<g
   transform="translate(1283.1557,636.58927)"
   id="g112"
   style="fill:#ffffff">&#10;				<g
   id="g111"
   style="fill:#ffffff">&#10;					<path
   class="st6"
   d="m -504.87,-421.47 v -5.54 h 9.27 v 6.15 c 0,0.96 0.03,1.84 0.08,2.63 0.06,0.8 0.12,1.47 0.22,2.02 0.11,0.55 0.24,1.01 0.39,1.36 0.2,0.46 0.47,0.8 0.8,1.02 0.33,0.22 0.78,0.33 1.36,0.33 1.07,0 1.77,-0.35 2.1,-1.05 0.18,-0.42 0.33,-1.02 0.44,-1.8 0.11,-0.78 0.17,-1.7 0.17,-2.77 0,-2.12 -0.38,-3.97 -1.14,-5.56 -0.39,-0.79 -0.9,-1.61 -1.52,-2.44 -0.63,-0.84 -1.37,-1.72 -2.21,-2.63 l -3.96,-4.07 c -1.9,-1.97 -3.39,-4.04 -4.46,-6.2 -1.07,-2.16 -1.61,-4.66 -1.61,-7.5 0,-4.61 0.9,-8.06 2.71,-10.35 1.86,-2.34 5,-3.52 9.41,-3.52 2.17,0 4.03,0.35 5.56,1.02 1.55,0.69 2.73,1.73 3.54,3.13 0.79,1.32 1.37,2.92 1.74,4.82 0.37,1.9 0.55,4.08 0.55,6.53 v 4.1 h -9.03 v -4.62 c 0,-0.83 -0.03,-1.59 -0.08,-2.3 -0.06,-0.7 -0.13,-1.29 -0.22,-1.77 -0.1,-0.48 -0.19,-0.89 -0.3,-1.22 -0.19,-0.42 -0.43,-0.73 -0.72,-0.91 -0.28,-0.2 -0.68,-0.3 -1.19,-0.3 -0.96,0 -1.65,0.32 -2.08,0.94 -0.48,0.72 -0.72,1.85 -0.72,3.41 0,0.8 0.06,1.51 0.19,2.13 0.15,0.61 0.34,1.15 0.58,1.61 0.51,0.94 1.5,2.19 2.93,3.74 l 4.43,4.79 c 1.14,1.22 2.14,2.46 2.99,3.71 0.87,1.24 1.58,2.49 2.16,3.77 1.18,2.57 1.77,5.36 1.77,8.36 0,2.57 -0.22,4.81 -0.66,6.73 -0.44,1.92 -1.12,3.53 -2.02,4.82 -0.93,1.32 -2.18,2.29 -3.77,2.93 -1.59,0.66 -3.48,1 -5.68,1 -4.51,0 -7.66,-1.45 -9.47,-4.37 -1.68,-2.83 -2.55,-6.87 -2.55,-12.13 z"
   id="path110"
   style="fill:#ffffff" />&#10;				</g>&#10;			</g>&#10;		</g>&#10;	</g></g></g></g>&#10;</svg>
