<?xml version="1.0" encoding="UTF-8" standalone="no"?>
<svg
   width="1350"
   height="1350"
   viewBox="0 0 1350 1349.9999"
   role="img"
   artist="Katerina Limpitsouni"
   source="https://undraw.co/"
   version="1.1"
   id="svg6"
   sodipodi:docname="umbrella_logo.svg"
   inkscape:version="1.4.2 (ebf0e940, 2025-05-08)"
   xmlns:inkscape="http://www.inkscape.org/namespaces/inkscape"
   xmlns:sodipodi="http://sodipodi.sourceforge.net/DTD/sodipodi-0.dtd"
   xmlns="http://www.w3.org/2000/svg"
   xmlns:svg="http://www.w3.org/2000/svg">
  <defs
     id="defs6">
    <inkscape:path-effect
       effect="powerstroke"
       message=""
       id="path-effect8"
       is_visible="true"
       lpeversion="1.3"
       scale_width="1"
       interpolator_type="CubicBezierJohan"
       interpolator_beta="0.2"
       start_linecap_type="zerowidth"
       end_linecap_type="zerowidth"
       offset_points="0.021234434,-3.3270344"
       linejoin_type="extrp_arc"
       miter_limit="4"
       not_jump="false"
       sort_points="true" />
    <inkscape:path-effect
       effect="fill_between_many"
       method="bsplinespiro"
       autoreverse="false"
       close="false"
       join="false"
       linkedpaths="#path8,0,1"
       id="path-effect9"
       is_visible="true"
       lpeversion="0" />
    <inkscape:path-effect
       effect="powerstroke"
       message=""
       id="path-effect16"
       is_visible="true"
       lpeversion="1.3"
       scale_width="1"
       interpolator_type="CubicBezierJohan"
       interpolator_beta="0.2"
       start_linecap_type="zerowidth"
       end_linecap_type="zerowidth"
       offset_points="0.18937931,0.21839739"
       linejoin_type="extrp_arc"
       miter_limit="4"
       not_jump="false"
       sort_points="true" />
    <inkscape:path-effect
       effect="powerstroke"
       message=""
       id="path-effect17"
       is_visible="true"
       lpeversion="1.3"
       scale_width="1"
       interpolator_type="CubicBezierJohan"
       interpolator_beta="0.2"
       start_linecap_type="zerowidth"
       end_linecap_type="zerowidth"
       offset_points="0.012406707,-0.79785801"
       linejoin_type="extrp_arc"
       miter_limit="4"
       not_jump="false"
       sort_points="true" />
    <inkscape:path-effect
       effect="powerstroke"
       message=""
       id="path-effect11"
       is_visible="true"
       lpeversion="1.3"
       scale_width="1"
       interpolator_type="CubicBezierJohan"
       interpolator_beta="0.2"
       start_linecap_type="zerowidth"
       end_linecap_type="zerowidth"
       offset_points="0.052559179,-0.44977309"
       linejoin_type="extrp_arc"
       miter_limit="4"
       not_jump="false"
       sort_points="true" />
    <inkscape:path-effect
       effect="powerstroke"
       message=""
       id="path-effect12"
       is_visible="true"
       lpeversion="1.3"
       scale_width="1"
       interpolator_type="CubicBezierJohan"
       interpolator_beta="0.2"
       start_linecap_type="zerowidth"
       end_linecap_type="zerowidth"
       offset_points="0.11545906,-0.31890486"
       linejoin_type="extrp_arc"
       miter_limit="4"
       not_jump="false"
       sort_points="true" />
  </defs>
  <sodipodi:namedview
     id="namedview6"
     pagecolor="#505050"
     bordercolor="#eeeeee"
     borderopacity="1"
     inkscape:showpageshadow="0"
     inkscape:pageopacity="0"
     inkscape:pagecheckerboard="0"
     inkscape:deskcolor="#505050"
     inkscape:zoom="0.25633031"
     inkscape:cx="509.10874"
     inkscape:cy="936.29193"
     inkscape:window-width="1512"
     inkscape:window-height="831"
     inkscape:window-x="0"
     inkscape:window-y="33"
     inkscape:window-maximized="0"
     inkscape:current-layer="g6" />
  <g
     transform="translate(-92.075259,-246.31633)"
     id="g6"
     style="display:inline">
    <ellipse
       style="display:none;fill:#f2f2f2;fill-opacity:1;stroke:none;stroke-width:5.97478;stroke-linecap:round;stroke-linejoin:round"
       id="path7"
       cx="1079.8145"
       cy="860.67426"
       rx="356.22983"
       ry="142.16718" />
    <g
       id="g1"
       transform="translate(42.749924,-455.70979)">
      <path
         style="display:inline;fill:#edc000;fill-opacity:1;stroke:none;stroke-width:6.59078;stroke-linejoin:round"
         d="m 380.03386,993.60113 c 106.89906,18.37327 192.08428,71.82277 245.53387,146.98627 163.6892,8.3515 265.57735,70.1525 329.04875,123.6021 113.58032,-8.3515 218.80902,30.0653 265.57752,60.1307 L 1208.5018,1242.4756 916.1996,1028.6774 575.4587,928.4595 411.7695,971.88726 Z"
         id="path2-9"
         sodipodi:nodetypes="ccccccccc"
         inkscape:label="umbrella inside" />
      <path
         style="fill:#ffeeaa;stroke:#4d4d4d;stroke-width:6;stroke-linecap:square;stroke-linejoin:round;stroke-dasharray:none"
         d="M 831.43199,1113.8626 663.14938,1514.7342"
         id="path24"
         sodipodi:nodetypes="cc"
         inkscape:label="handle" />
      <path
         style="display:inline;fill:#ffe571;fill-opacity:1;stroke:none;stroke-width:6.59078;stroke-linejoin:round"
         d="m 932.90252,848.28519 c -155.33774,-66.81193 -414.23397,-25.05448 -559.5499,146.98624 90.19613,-21.71388 205.44677,36.74657 242.1933,66.81197 116.43188,14.7908 295.64277,51.7792 385.83888,150.3268 90.1961,6.6812 175.3814,45.0981 218.8092,111.91 -5.0109,-30.0654 13.3623,-317.3567 -287.29148,-476.03501 z"
         id="path1-3"
         sodipodi:nodetypes="cccccc"
         inkscape:label="umbrella outside" />
      <path
         style="fill:none;stroke:#4d4d4d;stroke-width:2;stroke-linecap:round;stroke-linejoin:round;stroke-dasharray:none"
         d="M 912.68242,840.27963 C 804.94814,851.97172 639.95054,949.98814 615.73113,1071.0848"
         id="path14"
         sodipodi:nodetypes="cc"
         inkscape:label="left umbrella frame" />
      <path
         style="fill:none;stroke:#4d4d4d;stroke-width:2;stroke-linecap:round;stroke-linejoin:round;stroke-dasharray:none"
         d="m 952.21229,858.74554 c 60.96591,56.79014 79.13661,272.48736 53.24691,369.36466"
         id="path15"
         sodipodi:nodetypes="cc"
         inkscape:label="right umbrella frame" />
      <g
         id="g25"
         inkscape:label="streaks"
         transform="matrix(12.455018,0,0,12.455018,124.47819,718.00191)">
        <path
           style="display:inline;fill:#ffeeaa;fill-rule:nonzero;stroke:#ffeeaa;stroke-width:0.529167;stroke-linejoin:round"
           d="m 54.514275,9.4545052 c -0.571432,0.060953 -2.646187,0.1989113 -3.418068,0.3735725 -0.344057,0.077853 -0.772106,0.1815943 -1.275807,0.3149843 -1.45643,0.385691 -3.506124,1.009116 -5.982681,1.953544 -5.71635,2.179912 -10.23849,4.71527 -13.596712,6.879457 3.288566,-2.119298 8.030567,-4.609444 13.69395,-6.615003 2.493837,-0.883136 4.53521,-1.447771 5.990513,-1.807724 0.500929,-0.123899 0.927233,-0.22232 1.267138,-0.299234 0.764025,-0.172883 2.750235,-0.738644 3.321667,-0.7995968 z"
           id="path16"
           inkscape:path-effect="#path-effect16"
           inkscape:original-d="M 54.514275,9.4545052 C 49.485283,9.9909311 39.293193,13.142433 30.241007,18.976063"
           sodipodi:nodetypes="cc"
           inkscape:label="leftmost outer streak" />
        <path
           style="display:inline;fill:#ffeeaa;fill-rule:nonzero;stroke:none;stroke-width:0.529167;stroke-linejoin:round"
           d="m 71.545795,16.6292 c 0.0584,0.03893 0.687667,-0.4974 0.748617,-0.454737 1.407082,0.984899 3.245243,2.674005 5.22198,5.451935 1.540193,2.16445 2.964708,4.71214 4.168377,7.451646 1.193383,2.716096 2.045106,5.336259 2.575805,7.594174 0.301603,1.283204 0.487985,2.39762 0.594034,3.342467 0.139399,1.241987 0.134524,2.137589 0.101832,2.765275 0.03266,-0.62698 -0.0053,-1.52546 -0.214575,-2.74933 -0.159226,-0.93105 -0.413723,-2.026079 -0.791034,-3.27537 -0.663885,-2.198146 -1.667655,-4.735018 -2.997995,-7.329364 -1.345879,-2.62465 -2.875211,-5.014556 -4.473107,-7.019278 -2.05166,-2.574015 -3.825829,-4.032747 -5.100363,-4.924868 -0.05512,-0.03858 0.224829,-0.813617 0.166429,-0.85255 z"
           id="path17"
           inkscape:path-effect="#path-effect17"
           inkscape:original-d="m 71.545795,16.6292 c 7.845228,5.230152 13.745911,19.71365 13.410645,26.15076"
           sodipodi:nodetypes="cc"
           inkscape:label="rightmost outer streak" />
        <path
           style="display:inline;fill:#ffeeaa;fill-rule:nonzero;stroke:none;stroke-width:0.529167;stroke-linejoin:round"
           d="m 61.957182,10.929676 c -0.198768,0.04441 -0.672292,0.637754 -0.867375,0.698851 -0.898927,0.281529 -2.159523,0.752809 -3.766494,1.652747 -1.503916,0.842225 -3.089301,1.937482 -4.661688,3.251786 -1.523153,1.273152 -2.852451,2.600503 -3.90681,3.820685 -0.595403,0.689044 -1.080611,1.317497 -1.466318,1.869878 -0.508019,0.727546 -0.827489,1.299912 -1.021771,1.71438 0.194643,-0.415239 0.490103,-0.997273 0.964681,-1.75222 0.360255,-0.573083 0.812898,-1.228301 1.375062,-1.953465 0.995365,-1.283973 2.261034,-2.691395 3.73726,-4.060167 1.519776,-1.409153 3.084775,-2.612316 4.591657,-3.547829 1.609824,-0.999423 2.928257,-1.55441 3.885574,-1.854226 0.208445,-0.06528 0.937454,0.203986 1.136222,0.15958 z"
           id="path10"
           inkscape:path-effect="#path-effect11"
           inkscape:original-d="m 61.957182,10.929676 c -6.303004,1.408118 -13.678859,8.71692 -15.690456,13.008327"
           sodipodi:nodetypes="cc"
           inkscape:label="left outer streak" />
        <path
           style="display:inline;fill:#ffeeaa;fill-rule:nonzero;stroke:none;stroke-width:0.529167;stroke-linejoin:round"
           d="m 65.108685,12.203688 c 0.269418,0.311224 1.28533,1.211111 1.518007,1.61435 0.03098,0.05369 0.06272,0.109667 0.09514,0.167932 0.328003,0.589464 0.706063,1.377539 1.089389,2.401593 0.577266,1.542166 1.075766,3.377646 1.460356,5.451163 0.356575,1.922476 0.566346,3.786667 0.673481,5.388812 0.05981,0.894381 0.08562,1.674397 0.09245,2.325622 0.009,0.859081 -0.01495,1.483245 -0.03394,1.894804 0.019,-0.411612 0.0225,-1.036526 -0.02006,-1.89318 -0.03221,-0.648355 -0.09085,-1.427023 -0.187547,-2.314145 -0.173327,-1.590104 -0.459299,-3.437268 -0.887603,-5.327133 -0.463534,-2.045319 -1.021189,-3.822972 -1.63457,-5.315072 -0.406448,-0.988718 -0.789452,-1.736454 -1.107913,-2.301037 -0.03141,-0.05568 -0.06197,-0.109199 -0.09163,-0.160591 -0.222701,-0.385951 -0.69615,-1.621894 -0.965568,-1.933118 z"
           id="path11"
           sodipodi:nodetypes="cc"
           inkscape:original-d="m 65.108685,12.203688 c 3.889087,4.492566 5.096046,14.885816 4.894886,19.244276"
           inkscape:path-effect="#path-effect12"
           inkscape:label="right outer streak" />
        <path
           style="display:inline;fill:#000000;stroke:#ffeeaa;stroke-width:1.002;stroke-linecap:round;stroke-linejoin:round;stroke-dasharray:none"
           d="M 51.449988,9.9739187 54.389452,9.5131506"
           id="path19"
           inkscape:label="corrective line" />
        <ellipse
           style="display:inline;fill:#ffeeaa;stroke:none;stroke-width:4.01087;stroke-linecap:round;stroke-linejoin:round;stroke-dasharray:none"
           id="path20"
           cx="57.572872"
           cy="21.008944"
           rx="0.70695424"
           ry="0.45537803"
           transform="matrix(0.98658622,-0.16324097,0.21115794,0.97745195,0,0)"
           inkscape:label="corrective circle" />
        <ellipse
           style="display:inline;fill:#ffeeaa;stroke:none;stroke-width:3.76592;stroke-linecap:round;stroke-linejoin:round;stroke-dasharray:none"
           id="path20-9"
           cx="55.85796"
           cy="-47.242321"
           rx="0.6786477"
           ry="0.41820112"
           transform="matrix(0.57065648,0.82118888,-0.71311058,0.70105156,0,0)"
           inkscape:label="corrective circle" />
        <ellipse
           style="display:inline;fill:#ffeeaa;stroke:none;stroke-width:1.01238;stroke-linecap:round;stroke-linejoin:round;stroke-dasharray:none"
           id="path21"
           cx="71.905983"
           cy="16.885237"
           rx="0.72602373"
           ry="0.84159487"
           inkscape:label="corrective circle" />
      </g>
      <path
         style="fill:none;stroke:#4d4d4d;stroke-width:2;stroke-linecap:round;stroke-linejoin:round;stroke-dasharray:none"
         d="m 956.5485,1273.6997 c 2.36222,-20.6689 5.31493,-59.6445 0.59037,-98.0296"
         id="path22"
         sodipodi:nodetypes="cc" />
      <path
         style="fill:none;stroke:#4d4d4d;stroke-width:2;stroke-linecap:round;stroke-linejoin:round;stroke-dasharray:none"
         d="m 692.57735,1075.8689 c -18.89725,19.4878 -41.92833,43.7 -62.59718,76.1796"
         id="path23"
         sodipodi:nodetypes="cc" />
      <g
         id="g2"
         transform="matrix(2.9785403,0,0,2.9785403,228.45667,708.03299)">
        <path
           class="st0"
           d="m 21.31326,277.95739 c -15.9240414,8.60199 -32.186892,40.24302 -11.7077467,61.30567 20.4791457,21.06266 65.7478447,25.41071 88.3727837,14.04177 25.693043,-12.89358 46.925103,-68.47714 47.169793,-88.95629 0.2447,-20.47914 0.95996,-39.60305 9.14786,-40.18656 8.18789,-0.5835 22.85081,2.48461 32.80804,-8.05613 9.95723,-10.54074 5.19507,-34.48327 -14.79468,-47.7533 -17.78749,-11.82068 -37.85254,-5.72212 -38.62427,37.45726 -0.50821,28.3847 -8.31965,50.91552 -20.83678,68.47714 -12.51712,17.56162 -26.57771,15.81111 -37.099624,14.04177 C 65.207899,286.59703 39.458385,268.15074 21.31326,277.95739 Z"
           id="path1-6"
           style="fill:#00a291;fill-opacity:1;stroke-width:1.88227" />
        <path
           class="st1"
           d="m 119.94444,296.53543 c 6.8703,-19.61329 20.72384,-40.09244 46.47335,-43.61229 25.74951,-3.51986 48.43092,-6.98324 73.61575,0.62115 25.16601,7.60439 47.30156,25.42952 46.13455,63.47029 -1.16701,38.04077 -26.44596,95.50661 -83.08359,95.41249 -42.27588,-0.0753 -74.12397,-29.81522 -81.14485,-59.08459 -7.02088,-29.26937 -6.09857,-45.0993 -1.99521,-56.80705 z"
           id="path2-7"
           style="fill:#1295d8;fill-opacity:1;stroke-width:1.88227" />
        <path
           class="st2"
           d="m 117.5916,387.84457 c 5.28919,18.82274 29.26936,13.45826 37.45726,-14.62527 8.18789,-28.10236 -2.91753,-38.04077 11.12424,-49.74852 14.04177,-11.70775 27.50002,-3.51985 41.56061,-25.74951 14.04177,-22.24849 11.70775,-59.12224 -14.62527,-61.45626 -26.33301,-2.33402 -34.53973,1.75051 -37.45726,5.85387 -2.91752,4.10336 -7.51027,18.42747 -10.48426,35.83851 -2.974,17.41103 -7.66086,50.20025 -11.76422,60.13866 -4.10336,9.95724 -21.08147,31.01989 -15.8111,49.74852 z"
           id="path3-5"
           style="fill:#ed8715;fill-opacity:1;stroke-width:1.88227" />
        <path
           class="st3"
           d="m 115.4458,254.50425 c -9.54313,21.2697 -29.777578,27.0671 -43.800522,20.76148 -14.022945,-6.30562 -16.319319,-28.10235 -8.09378,-49.91791 9.524308,-25.27895 30.229327,-29.25055 44.252272,-22.96375 14.02294,6.30562 17.18516,30.85048 7.64203,52.12018 z"
           id="path4-3"
           style="fill:#ffcf00;fill-opacity:1;stroke-width:1.88227" />
      </g>
      <path
         style="fill:#ffeeaa;stroke:#4d4d4d;stroke-width:12.4799;stroke-linecap:round;stroke-linejoin:round;stroke-dasharray:none"
         d="m 932.17303,844.79236 8.85814,-20.96416"
         id="path25"
         sodipodi:nodetypes="cc" />
    </g>
  </g>
</svg>
