<?xml version="1.0" encoding="UTF-8" standalone="no"?>
<!-- Created with Inkscape (http://www.inkscape.org/) -->

<svg
   width="226"
   height="113"
   viewBox="0 0 59.795835 29.897917"
   version="1.1"
   id="svg1"
   xmlns="http://www.w3.org/2000/svg"
   xmlns:svg="http://www.w3.org/2000/svg">
  <defs
     id="defs1">
    <rect
       x="273.70389"
       y="502.80417"
       width="577.81934"
       height="212.8808"
       id="rect7" />
    <rect
       x="159.13113"
       y="666.63043"
       width="592.69385"
       height="213.24313"
       id="rect360" />
    <rect
       x="273.70389"
       y="502.80417"
       width="577.81934"
       height="212.8808"
       id="rect11" />
  </defs>
  <g
     id="g359"
     style="display:inline">
    <rect
       style="fill:#ffffff;stroke-width:0.237987"
       id="rect242"
       width="59.795834"
       height="29.897919"
       x="2.2074985e-06"
       y="1.1037492e-06" />
    <g
       id="g3"
       transform="matrix(0.37283813,0,0,0.37283813,0.97492112,1.6419738)">
      <text
         xml:space="preserve"
         transform="matrix(0.26458333,0,0,0.26458333,-31.835383,-158.23151)"
         id="text360"
         style="font-size:16px;line-height:1.25;font-family:'Roboto Condensed';-inkscape-font-specification:'Roboto Condensed, ';text-align:start;writing-mode:lr-tb;direction:ltr;white-space:pre;shape-inside:url(#rect360);display:inline;fill:#000000;fill-opacity:1;stroke:none;stroke-width:2.26772;stroke-opacity:0.992974"><tspan
           x="159.13086"
           y="681.29753"
           id="tspan8"><tspan
             style="font-weight:300;font-family:Urbanist;-inkscape-font-specification:'Urbanist Light'"
             id="tspan7">UNIVERSITY OF CALIFORNIA OSPO NETWORK</tspan></tspan></text>
      <g
         id="g358"
         transform="matrix(0.18822686,0,0,0.18822686,112.03658,25.69212)">
        <g
           id="g245"
           transform="matrix(0.53319058,0,0,0.53319058,0.5433701,-86.507077)">
          <path
             class="st0"
             d="m 21.31326,277.95739 c -15.9240414,8.60199 -32.186892,40.24302 -11.7077467,61.30567 20.4791457,21.06266 65.7478447,25.41071 88.3727837,14.04177 25.693043,-12.89358 46.925103,-68.47714 47.169793,-88.95629 0.2447,-20.47914 0.95996,-39.60305 9.14786,-40.18656 8.18789,-0.5835 22.85081,2.48461 32.80804,-8.05613 9.95723,-10.54074 5.19507,-34.48327 -14.79468,-47.7533 -17.78749,-11.82068 -37.85254,-5.72212 -38.62427,37.45726 -0.50821,28.3847 -8.31965,50.91552 -20.83678,68.47714 -12.51712,17.56162 -26.57771,15.81111 -37.099624,14.04177 C 65.207899,286.59703 39.458385,268.15074 21.31326,277.95739 Z"
             id="path242"
             style="fill:#00a291;fill-opacity:1;stroke-width:1.88227" />
          <path
             class="st1"
             d="m 119.94444,296.53543 c 6.8703,-19.61329 20.72384,-40.09244 46.47335,-43.61229 25.74951,-3.51986 48.43092,-6.98324 73.61575,0.62115 25.16601,7.60439 47.30156,25.42952 46.13455,63.47029 -1.16701,38.04077 -26.44596,95.50661 -83.08359,95.41249 -42.27588,-0.0753 -74.12397,-29.81522 -81.14485,-59.08459 -7.02088,-29.26937 -6.09857,-45.0993 -1.99521,-56.80705 z"
             id="path243"
             style="fill:#1295d8;fill-opacity:1;stroke-width:1.88227" />
          <path
             class="st2"
             d="m 117.5916,387.84457 c 5.28919,18.82274 29.26936,13.45826 37.45726,-14.62527 8.18789,-28.10236 -2.91753,-38.04077 11.12424,-49.74852 14.04177,-11.70775 27.50002,-3.51985 41.56061,-25.74951 14.04177,-22.24849 11.70775,-59.12224 -14.62527,-61.45626 -26.33301,-2.33402 -34.53973,1.75051 -37.45726,5.85387 -2.91752,4.10336 -7.51027,18.42747 -10.48426,35.83851 -2.974,17.41103 -7.66086,50.20025 -11.76422,60.13866 -4.10336,9.95724 -21.08147,31.01989 -15.8111,49.74852 z"
             id="path244"
             style="fill:#ed8715;fill-opacity:1;stroke-width:1.88227" />
          <path
             class="st3"
             d="m 115.4458,254.50425 c -9.54313,21.2697 -29.777578,27.0671 -43.800522,20.76148 -14.022945,-6.30562 -16.319319,-28.10235 -8.09378,-49.91791 9.524308,-25.27895 30.229327,-29.25055 44.252272,-22.96375 14.02294,6.30562 17.18516,30.85048 7.64203,52.12018 z"
             id="path245"
             style="fill:#ffcf00;fill-opacity:1;stroke-width:1.88227" />
        </g>
      </g>
      <text
         xml:space="preserve"
         transform="matrix(0.26458333,0,0,0.26458333,-62.530287,-108.51181)"
         id="text4"
         style="font-style:normal;font-variant:normal;font-weight:normal;font-stretch:normal;font-size:48px;line-height:1.25;font-family:Kievit;-inkscape-font-specification:Kievit;text-align:start;letter-spacing:-0.2px;writing-mode:lr-tb;direction:ltr;white-space:pre;shape-inside:url(#rect7);display:inline;fill:#ffffff;stroke:#ff00ff;stroke-width:2.26772;stroke-opacity:0.992974"><tspan
           x="273.70312"
           y="546.80469"
           id="tspan10"><tspan
             style="font-weight:900;font-family:Urbanist;-inkscape-font-specification:'Urbanist Heavy';fill:#000000;stroke:none"
             id="tspan9">SUSTAINABILITY</tspan></tspan></text>
      <text
         xml:space="preserve"
         transform="matrix(0.26458333,0,0,0.26458333,-62.65729,-94.26661)"
         id="text11"
         style="font-style:normal;font-variant:normal;font-weight:normal;font-stretch:normal;font-size:48px;line-height:1.25;font-family:Kievit;-inkscape-font-specification:Kievit;text-align:start;letter-spacing:-0.2px;writing-mode:lr-tb;direction:ltr;white-space:pre;shape-inside:url(#rect11);display:inline;fill:#ffffff;stroke:none;stroke-width:2.26772;stroke-opacity:0.992974"><tspan
           x="273.70312"
           y="546.80469"
           id="tspan12"><tspan
             style="font-weight:900;font-family:Urbanist;-inkscape-font-specification:'Urbanist Heavy';fill:#000000"
             id="tspan11">PLAYBOOK</tspan></tspan></text>
      <rect
         style="display:none;fill:none;stroke:#ff00ff;stroke-width:0.552582;stroke-opacity:0.992974"
         id="rect12"
         width="119.13396"
         height="34.110458"
         x="9.9001684"
         y="16.337278" />
      <path
         style="display:inline;fill:none;stroke:#069ea9;stroke-width:0.141;stroke-opacity:1"
         d="m 10.728516,52.301518 c 44.702152,0 89.404304,0 134.106454,0"
         id="path1"
         transform="translate(-0.20652855,3.3271402)" />
      <path
         style="display:none;fill:none;stroke:#800000;stroke-width:0.141;stroke-opacity:0.992157"
         d="m 10.728516,52.301518 c 44.702152,0 89.404304,0 134.106454,0"
         id="path2"
         transform="translate(0,-31.380911)" />
    </g>
  </g>
</svg>
