<?xml version="1.0" encoding="UTF-8" standalone="no"?>
<!-- Created with Inkscape (http://www.inkscape.org/) -->

<svg
   width="40.376919mm"
   height="35.179649mm"
   viewBox="0 0 40.376919 35.179649"
   version="1.1"
   id="svg1"
   inkscape:version="1.3 (0e150ed6c4, 2023-07-21)"
   sodipodi:docname="logo.svg"
   xmlns:inkscape="http://www.inkscape.org/namespaces/inkscape"
   xmlns:sodipodi="http://sodipodi.sourceforge.net/DTD/sodipodi-0.dtd"
   xmlns="http://www.w3.org/2000/svg"
   xmlns:svg="http://www.w3.org/2000/svg">
  <sodipodi:namedview
     id="namedview1"
     pagecolor="#ffffff"
     bordercolor="#000000"
     borderopacity="0.25"
     inkscape:showpageshadow="2"
     inkscape:pageopacity="0.0"
     inkscape:pagecheckerboard="0"
     inkscape:deskcolor="#d1d1d1"
     inkscape:document-units="mm"
     inkscape:zoom="4.6152123"
     inkscape:cx="110.39579"
     inkscape:cy="70.852645"
     inkscape:window-width="1920"
     inkscape:window-height="1200"
     inkscape:window-x="0"
     inkscape:window-y="0"
     inkscape:window-maximized="0"
     inkscape:current-layer="layer1" />
  <defs
     id="defs1" />
  <g
     inkscape:label="Layer 1"
     inkscape:groupmode="layer"
     id="layer1"
     transform="translate(-72.363177,-114.25473)">
    <g
       id="g2"
       transform="matrix(0.14107334,0,0,0.14107334,72.363177,91.2519)">
      <path
         class="st0"
         d="m 21.31326,277.95739 c -15.9240414,8.60199 -32.186892,40.24302 -11.7077467,61.30567 20.4791457,21.06266 65.7478447,25.41071 88.3727837,14.04177 25.693043,-12.89358 46.925103,-68.47714 47.169793,-88.95629 0.2447,-20.47914 0.95996,-39.60305 9.14786,-40.18656 8.18789,-0.5835 22.85081,2.48461 32.80804,-8.05613 9.95723,-10.54074 5.19507,-34.48327 -14.79468,-47.7533 -17.78749,-11.82068 -37.85254,-5.72212 -38.62427,37.45726 -0.50821,28.3847 -8.31965,50.91552 -20.83678,68.47714 -12.51712,17.56162 -26.57771,15.81111 -37.099624,14.04177 C 65.207899,286.59703 39.458385,268.15074 21.31326,277.95739 Z"
         id="path1-6"
         style="fill:#00a291;fill-opacity:1;stroke-width:1.88227" />
      <path
         class="st1"
         d="m 119.94444,296.53543 c 6.8703,-19.61329 20.72384,-40.09244 46.47335,-43.61229 25.74951,-3.51986 48.43092,-6.98324 73.61575,0.62115 25.16601,7.60439 47.30156,25.42952 46.13455,63.47029 -1.16701,38.04077 -26.44596,95.50661 -83.08359,95.41249 -42.27588,-0.0753 -74.12397,-29.81522 -81.14485,-59.08459 -7.02088,-29.26937 -6.09857,-45.0993 -1.99521,-56.80705 z"
         id="path2-7"
         style="fill:#1295d8;fill-opacity:1;stroke-width:1.88227" />
      <path
         class="st2"
         d="m 117.5916,387.84457 c 5.28919,18.82274 29.26936,13.45826 37.45726,-14.62527 8.18789,-28.10236 -2.91753,-38.04077 11.12424,-49.74852 14.04177,-11.70775 27.50002,-3.51985 41.56061,-25.74951 14.04177,-22.24849 11.70775,-59.12224 -14.62527,-61.45626 -26.33301,-2.33402 -34.53973,1.75051 -37.45726,5.85387 -2.91752,4.10336 -7.51027,18.42747 -10.48426,35.83851 -2.974,17.41103 -7.66086,50.20025 -11.76422,60.13866 -4.10336,9.95724 -21.08147,31.01989 -15.8111,49.74852 z"
         id="path3-5"
         style="fill:#ed8715;fill-opacity:1;stroke-width:1.88227" />
      <path
         class="st3"
         d="m 115.4458,254.50425 c -9.54313,21.2697 -29.777578,27.0671 -43.800522,20.76148 -14.022945,-6.30562 -16.319319,-28.10235 -8.09378,-49.91791 9.524308,-25.27895 30.229327,-29.25055 44.252272,-22.96375 14.02294,6.30562 17.18516,30.85048 7.64203,52.12018 z"
         id="path4-3"
         style="fill:#ffcf00;fill-opacity:1;stroke-width:1.88227" />
    </g>
  </g>
</svg>
